<?xml version="1.0" encoding="UTF-8"?>
<svg xmlns="http://www.w3.org/2000/svg" xmlns:xlink="http://www.w3.org/1999/xlink" version="1.2" >
<font id="Proxima Nova Regular">
<font-face  font-family="Proxima Nova" units-per-em="2048" ascent="1618" descent="-430" font-style="normal" font-weight="400" font-stretch="normal" cap-height="1366" x-height="989" underline-position="-251" underline-thickness="40" />
<missing-glyph  horiz-adv-x="1038" d="M160 -184 L160 1540 L879 1540 L879 -184 L160 -184 Z M223 -123 L813 -123 L813 1479 L223 1479 L223 -123 Z " />
<glyph glyph-name="space" unicode="&#x20;" horiz-adv-x="530" d="" />
<glyph glyph-name="exclam" unicode="&#x21;" horiz-adv-x="471" d="M123 92 Q123 139 155.5 172 Q188 205 235.5 205 Q283 205 315.5 172 Q348 139 348 92 Q348 47 314.5 13.5 Q281 -20 235.5 -20 Q190 -20 156.5 13.5 Q123 47 123 92 Z M139 1366 L332 1366 L299 383 L172 383 L139 1366 Z " />
<glyph glyph-name="quotedbl" unicode="&#x22;" horiz-adv-x="704" d="M111 1292 Q111 1331 137.5 1358.5 Q164 1386 203 1386 Q242 1386 269.5 1358.5 Q297 1331 297 1292 L242 844 L166 844 Q111 1263 111 1292 Z M408 1292 Q408 1331 435.5 1358.5 Q463 1386 502 1386 Q541 1386 567.5 1358.5 Q594 1331 594 1292 L539 844 L463 844 Q408 1263 408 1292 Z " />
<glyph glyph-name="numbersign" unicode="&#x23;" horiz-adv-x="1210" d="M45 371 L80 479 L299 479 L434 887 L213 887 L246 993 L471 993 L594 1366 L721 1366 L598 993 L823 993 L946 1366 L1071 1366 L946 993 L1165 993 L1135 887 L911 887 L774 479 L1001 479 L969 371 L737 371 L614 0 L489 0 L614 371 L387 371 L264 0 L137 0 L262 371 L45 371 Z M424 479 L649 479 L786 887 L561 887 L424 479 Z " />
<glyph glyph-name="dollar" unicode="&#x24;" horiz-adv-x="1214" d="M88 193 L190 324 Q331 156 555 131 L555 629 Q457 656 397.5 678 Q338 700 268.5 743 Q199 786 165 852 Q131 918 131 1008 Q131 1164 250 1268 Q369 1372 555 1386 L555 1573 L680 1573 L680 1384 Q924 1364 1085 1196 L983 1071 Q864 1202 680 1229 L680 782 Q758 759 808 742 Q858 725 922.5 691 Q987 657 1025 618.5 Q1063 580 1089.5 517.5 Q1116 455 1116 377 Q1116 221 1008.5 107.5 Q901 -6 680 -23 L680 -205 L555 -205 L555 -23 Q262 -4 88 193 Z M307 1018 Q307 940 370.5 895 Q434 850 555 815 L555 1233 Q444 1225 375.5 1165.5 Q307 1106 307 1018 Z M680 129 Q815 143 877.5 211 Q940 279 940 365 Q940 457 872.5 508 Q805 559 680 596 L680 129 Z " />
<glyph glyph-name="percent" unicode="&#x25;" horiz-adv-x="1499" d="M63 1047 Q63 1194 155.5 1290 Q248 1386 393.5 1386 Q539 1386 631 1290 Q723 1194 723 1047 Q723 904 631 808.5 Q539 713 393.5 713 Q248 713 155.5 808.5 Q63 904 63 1047 Z M186 1047 Q186 949 244.5 883 Q303 817 393 817 Q483 817 541.5 882.5 Q600 948 600 1047 Q600 1149 542.5 1215.5 Q485 1282 393 1282 Q303 1282 244.5 1215.5 Q186 1149 186 1047 Z M262 0 L1135 1366 L1249 1366 L375 0 L262 0 Z M776 311 Q776 456 868.5 552.5 Q961 649 1106 649 Q1249 649 1341.5 553 Q1434 457 1434 311.5 Q1434 166 1342.5 70.5 Q1251 -25 1106 -25 Q961 -25 868.5 71.5 Q776 168 776 311 Z M955.5 478.5 Q897 412 897 311.5 Q897 211 955.5 145.5 Q1014 80 1106 80 Q1198 80 1255.5 145.5 Q1313 211 1313 311.5 Q1313 412 1255.5 478.5 Q1198 545 1106 545 Q1014 545 955.5 478.5 Z " />
<glyph glyph-name="ampersand" unicode="&#x26;" horiz-adv-x="1314" d="M76 356 Q76 501 156 593.5 Q236 686 377 764 Q273 942 272 1071 Q272 1206 371.5 1296.5 Q471 1387 616 1387 Q751 1387 837.5 1315 Q924 1243 924 1118 Q924 1044 897 986 Q870 928 811 879.5 Q752 831 708 804.5 Q664 778 575 733 Q641 645 735 539 Q809 451 897 356 Q987 495 1044 670 L1176 610 Q1086 393 989 258 Q1116 127 1255 0 L1042 0 Q1001 35 893 143 Q725 -25 500 -25 Q316 -25 196 74.5 Q76 174 76 356 Z M240 367 Q240 244 320.5 173 Q401 102 516 102 Q670 102 801 238 Q666 379 612 444 Q514 557 442 662 Q240 539 240 367 Z M430 1067 Q430 972 512 832 Q645 898 713.5 959 Q782 1020 782 1112 Q782 1186 737 1227 Q692 1268 621 1268 Q541 1268 485.5 1211.5 Q430 1155 430 1067 Z " />
<glyph glyph-name="quotesingle" unicode="&#x27;" horiz-adv-x="407" d="M111 1292 Q111 1331 137.5 1358.5 Q164 1386 203 1386 Q242 1386 269.5 1358.5 Q297 1331 297 1292 L242 844 L166 844 Q111 1263 111 1292 Z " />
<glyph glyph-name="parenleft" unicode="&#x28;" horiz-adv-x="507" d="M379 -408 Q90 -10 90 498 Q90 1006 379 1403 L473 1333 Q364 1120 311 929.5 Q258 739 258 498 Q258 258 311.5 66.5 Q365 -125 473 -336 L379 -408 Z " />
<glyph glyph-name="parenright" unicode="&#x29;" horiz-adv-x="507" d="M35 -336 L129 -408 Q418 -11 418 497.5 Q418 1006 129 1403 L35 1333 Q144 1120 197 929.5 Q250 739 250 498 Q250 258 197 66.5 Q144 -125 35 -336 Z " />
<glyph glyph-name="asterisk" unicode="&#x2a;" horiz-adv-x="696" d="M70 985 L279 1092 L70 1198 L115 1280 L313 1151 L301 1386 L395 1386 L383 1151 L580 1280 L627 1198 L418 1092 L627 985 L580 905 L383 1032 L395 797 L301 797 L313 1032 L115 905 L70 985 Z " />
<glyph glyph-name="plus" unicode="&#x2b;" horiz-adv-x="1021" d="M59 637 L59 743 L453 743 L453 1167 L569 1167 L569 743 L963 743 L963 637 L569 637 L569 201 L453 201 L453 637 L59 637 Z " />
<glyph glyph-name="comma" unicode="&#x2c;" horiz-adv-x="471" d="M117 -197 Q168 -164 206 -109.5 Q244 -55 250 -6 Q242 -10 221 -10 Q180 -10 151.5 19.5 Q123 49 123 94 Q123 139 154.5 172 Q186 205 231 205 Q286 205 323 163 Q360 121 360 49 Q360 -41 314 -124 Q268 -207 195 -260 L117 -197 Z " />
<glyph glyph-name="hyphen" unicode="&#x2d;" horiz-adv-x="614" d="M61 428 L61 563 L553 563 L553 428 L61 428 Z " />
<glyph glyph-name="period" unicode="&#x2e;" horiz-adv-x="473" d="M155.5 12.5 Q123 45 123 92 Q123 139 155.5 172 Q188 205 235.5 205 Q283 205 315.5 172 Q348 139 348 92 Q348 45 315.5 12.5 Q283 -20 235.5 -20 Q188 -20 155.5 12.5 Z " />
<glyph glyph-name="slash" unicode="&#x2f;" horiz-adv-x="606" d="M0 -41 L485 1407 L606 1407 L121 -41 L0 -41 Z " />
<glyph glyph-name="zero" unicode="0" horiz-adv-x="1253" d="M134 430 Q104 551 104 682 Q104 813 134 934 Q164 1055 224.5 1158.5 Q285 1262 388.5 1324 Q492 1386 627 1386 Q760 1386 864.5 1324 Q969 1262 1029.5 1158.5 Q1090 1055 1119.5 934 Q1149 813 1149 682 Q1149 551 1119.5 430 Q1090 309 1029.5 204.5 Q969 100 864.5 37.5 Q760 -25 627 -25 Q492 -25 388.5 37.5 Q285 100 224.5 204.5 Q164 309 134 430 Z M309.5 948 Q279 829 279 682 Q279 535 309.5 416 Q340 297 422 212 Q504 127 627 127 Q750 127 831.5 212 Q913 297 944 416 Q975 535 975 682 Q975 829 944 948 Q913 1067 831.5 1151 Q750 1235 627 1235 Q504 1235 422 1151 Q340 1067 309.5 948 Z " />
<glyph glyph-name="one" unicode="1" horiz-adv-x="694" d="M43 1014 L385 1366 L535 1366 L535 0 L365 0 L365 1143 L145 909 L43 1014 Z " />
<glyph glyph-name="two" unicode="2" horiz-adv-x="1204" d="M109 1171 Q187 1273 312.5 1329.5 Q438 1386 584 1386 Q770 1386 906 1282 Q1042 1178 1042 985 Q1042 795 878.5 605.5 Q715 416 379 152 L1049 152 L1049 0 L111 0 L111 137 Q531 465 700.5 643 Q870 821 870 985 Q870 1108 785 1171.5 Q700 1235 584 1235 Q348 1235 213 1063 L109 1171 Z " />
<glyph glyph-name="three" unicode="3" horiz-adv-x="1140" d="M59 201 L160 307 Q221 225 321.5 176 Q422 127 541 127 Q688 127 774 196.5 Q860 266 860 383 Q860 506 769 565.5 Q678 625 520 625 Q399 625 379 623 L379 778 Q402 776 520 776 Q659 776 748.5 832.5 Q838 889 838 1001 Q838 1110 751 1172.5 Q664 1235 532 1235 Q325 1235 172 1069 L78 1176 Q250 1387 547 1387 Q750 1387 879 1289.5 Q1008 1192 1008 1024 Q1008 889 917.5 807 Q827 725 715 707 Q828 695 929 606.5 Q1030 518 1030 369 Q1030 195 898 85 Q766 -25 545 -25 Q381 -25 254 39 Q127 103 59 201 Z " />
<glyph glyph-name="four" unicode="4" horiz-adv-x="1142" d="M66 346 L66 487 L651 1366 L885 1366 L885 496 L1077 496 L1077 346 L885 346 L885 0 L715 0 L715 346 L66 346 Z M236 496 L715 496 L715 1208 L236 496 Z " />
<glyph glyph-name="five" unicode="5" horiz-adv-x="1208" d="M135 195 L240 309 Q381 127 616 127 Q755 127 843.5 211 Q932 295 932 420 Q932 553 845 634 Q758 715 618 715 Q436 715 303 588 L178 631 L178 1366 L1014 1366 L1014 1214 L348 1214 L348 739 Q475 862 668 862 Q850 862 977 745.5 Q1104 629 1104 426 Q1104 223 965.5 99 Q827 -25 616 -25 Q301 -24 135 195 Z " />
<glyph glyph-name="six" unicode="6" horiz-adv-x="1210" d="M104 682 Q104 981 246.5 1183.5 Q389 1386 662 1386 Q900 1386 1038 1223 L952 1096 Q833 1235 662 1235 Q476 1235 376 1077.5 Q276 920 276 698 L276 645 Q327 727 435 792.5 Q543 858 664 858 Q859 858 984.5 744.5 Q1110 631 1110 422 Q1110 238 979 106.5 Q848 -25 633 -25 Q494 -25 389.5 32.5 Q285 90 224.5 190.5 Q164 291 134 414 Q104 537 104 682 Z M283 508 Q295 356 379 241.5 Q463 127 625 127 Q772 127 855 217 Q938 307 938 416 Q938 559 850 635 Q762 711 625 711 Q525 711 432.5 654.5 Q340 598 283 508 Z " />
<glyph glyph-name="seven" unicode="7" horiz-adv-x="1054" d="M63 1214 L63 1366 L995 1366 L995 1249 L436 0 L248 0 L799 1214 L63 1214 Z " />
<glyph glyph-name="eight" unicode="8" horiz-adv-x="1191" d="M107 346 Q107 475 200 569.5 Q293 664 432 705 Q301 742 215 824.5 Q129 907 129 1032 Q129 1204 268.5 1295 Q408 1386 596 1386 Q784 1386 924.5 1295 Q1065 1204 1065 1032 Q1065 907 978 824 Q891 741 760 705 Q899 664 992 569.5 Q1085 475 1085 346 Q1085 178 945 76.5 Q805 -25 596 -25 Q387 -25 247 75.5 Q107 176 107 346 Z M279 365 Q279 259 371 193 Q463 127 596 127 Q727 127 820 192.5 Q913 258 913 365 Q913 447 848.5 509 Q784 571 717.5 597 Q651 623 596 629 Q541 623 474.5 597 Q408 571 343.5 509 Q279 447 279 365 Z M301 1010 Q301 953 334 906.5 Q367 860 420 834.5 Q473 809 514 794.5 Q555 780 596 774 Q637 780 679 794.5 Q721 809 774 834.5 Q827 860 860 906 Q893 952 893 1010 Q893 1112 808 1173.5 Q723 1235 596 1235 Q469 1235 385 1174.5 Q301 1114 301 1010 Z " />
<glyph glyph-name="nine" unicode="9" horiz-adv-x="1210" d="M100 942 Q100 1126 231 1257.5 Q362 1389 580 1389 Q717 1389 821.5 1331.5 Q926 1274 987.5 1173.5 Q1049 1073 1078.5 950 Q1108 827 1108 682 Q1108 489 1050.5 334.5 Q993 180 864 78.5 Q735 -23 551 -23 Q318 -23 172 141 L258 268 Q377 129 551 129 Q682 129 772 211 Q862 293 899 409.5 Q936 526 936 666 Q936 701 934 719 Q883 637 776.5 571.5 Q670 506 549 506 Q354 506 227 619.5 Q100 733 100 942 Z M272 948 Q272 805 360.5 729 Q449 653 588 653 Q688 653 781 709.5 Q874 766 930 858 Q924 926 902.5 989.5 Q881 1053 842 1110 Q803 1167 736.5 1202 Q670 1237 586 1237 Q441 1237 356.5 1148 Q272 1059 272 948 Z " />
<glyph glyph-name="colon" unicode="&#x3a;" horiz-adv-x="460" d="M155.5 12.5 Q123 45 123 92 Q123 139 155.5 172 Q188 205 235.5 205 Q283 205 315.5 172 Q348 139 348 92 Q348 45 315.5 12.5 Q283 -20 235.5 -20 Q188 -20 155.5 12.5 Z M123 891 Q123 938 155.5 971 Q188 1004 235.5 1004 Q283 1004 315.5 971 Q348 938 348 891 Q348 846 314.5 812 Q281 778 235.5 778 Q190 778 156.5 812 Q123 846 123 891 Z " />
<glyph glyph-name="semicolon" unicode="&#x3b;" horiz-adv-x="471" d="M117 -195 Q166 -162 205 -106.5 Q244 -51 250 -2 Q242 -6 221 -6 Q180 -6 151.5 23.5 Q123 53 123 98 Q123 143 154.5 176 Q186 209 231 209 Q286 209 323 167 Q360 125 360 53 Q360 -39 314 -121 Q268 -203 195 -256 L117 -195 Z M123 891 Q123 938 155.5 971 Q188 1004 235.5 1004 Q283 1004 315.5 971 Q348 938 348 891 Q348 846 314.5 812 Q281 778 235.5 778 Q190 778 156.5 812 Q123 846 123 891 Z " />
<glyph glyph-name="less" unicode="&#x3c;" horiz-adv-x="1021" d="M59 631 L59 739 L963 1188 L963 1059 L190 684 L963 313 L963 184 L59 631 Z " />
<glyph glyph-name="equal" unicode="&#x3d;" horiz-adv-x="1021" d="M59 432 L59 541 L963 541 L963 432 L59 432 Z M59 827 L59 936 L963 936 L963 827 L59 827 Z " />
<glyph glyph-name="greater" unicode="&#x3e;" horiz-adv-x="1021" d="M59 184 L59 313 L831 684 L59 1059 L59 1188 L963 739 L963 631 L59 184 Z " />
<glyph glyph-name="question" unicode="&#x3f;" horiz-adv-x="946" d="M37 1178 Q197 1387 481 1386 Q663 1386 773 1295 Q883 1204 883 1069 Q883 983 842 914.5 Q801 846 742 803 L627 721 Q570 682 528.5 635 Q487 588 487 532 Q487 471 541 434 L416 379 Q338 445 338 547 Q338 619 376 676 Q414 733 468 773 L577 850 Q631 887 669 936 Q707 985 707 1044 Q707 1126 644.5 1180.5 Q582 1235 467 1235 Q264 1235 139 1067 L37 1178 Z M380 12.5 Q346 45 346 92 Q346 139 380 172 Q414 205 459 205 Q504 205 537.5 172 Q571 139 571 92 Q571 45 537.5 12.5 Q504 -20 459 -20 Q414 -20 380 12.5 Z " />
<glyph glyph-name="at" unicode="&#x40;" horiz-adv-x="1603" d="M72 500 Q72 828 316.5 1067.5 Q561 1307 885 1307 Q1170 1307 1350 1119.5 Q1530 932 1530 657 Q1530 432 1423.5 303 Q1317 174 1176 174 Q1094 174 1043.5 222 Q993 270 989 340 L989 354 Q934 274 846 224 Q758 174 664 174 Q523 174 436.5 266 Q350 358 350 508 Q350 717 497.5 869.5 Q645 1022 831 1022 Q925 1022 994 977 Q1063 932 1094 862 L1120 989 L1260 989 L1143 434 Q1139 409 1139 391 Q1139 342 1166.5 313.5 Q1194 285 1235 285 Q1313 285 1385.5 377 Q1458 469 1458 657 Q1458 911 1297.5 1074 Q1137 1237 879 1237 Q584 1237 363.5 1015 Q143 793 143 504 Q143 256 309 90 Q475 -76 729 -76 Q928 -76 1110 39 L1147 -14 Q946 -143 721 -143 Q442 -143 257 42.5 Q72 228 72 500 Z M498 516 Q498 416 553 352.5 Q608 289 707 289 Q883 289 1010 473 L1069 758 Q1049 815 994.5 861 Q940 907 858 907 Q708 907 603 788.5 Q498 670 498 516 Z " />
<glyph glyph-name="A" unicode="A" horiz-adv-x="1347" d="M18 0 L569 1366 L780 1366 L1329 0 L1135 0 L1014 305 L334 305 L213 0 L18 0 Z M385 455 L965 455 L674 1192 L385 455 Z " />
<glyph glyph-name="B" unicode="B" horiz-adv-x="1288" d="M160 0 L160 1366 L768 1366 Q944 1366 1047.5 1270 Q1151 1174 1151 1018 Q1151 895 1081.5 810 Q1012 725 911 705 Q1020 689 1099 590.5 Q1178 492 1178 369 Q1178 203 1072.5 101.5 Q967 0 782 0 L160 0 Z M330 152 L750 152 Q869 152 935 215.5 Q1001 279 1001 387 Q1001 485 934.5 554 Q868 623 750 623 L330 623 L330 152 Z M330 774 L739 774 Q852 774 913.5 835.5 Q975 897 975 993.5 Q975 1090 912.5 1152 Q850 1214 739 1214 L330 1214 L330 774 Z " />
<glyph glyph-name="C" unicode="C" horiz-adv-x="1384" d="M306 173 Q104 371 104 682 Q104 993 306 1191 Q508 1389 807 1389 Q1137 1389 1325 1118 L1184 1038 Q1125 1128 1023.5 1182.5 Q922 1237 807 1237 Q580 1237 430.5 1081.5 Q281 926 281 682 Q281 440 431.5 283.5 Q582 127 807 127 Q922 127 1023 182.5 Q1124 238 1184 326 L1327 248 Q1128 -24 807 -25 Q508 -25 306 173 Z " />
<glyph glyph-name="D" unicode="D" horiz-adv-x="1433" d="M160 0 L160 1366 L627 1366 Q940 1366 1133.5 1171.5 Q1327 977 1327 682 Q1327 385 1134.5 192.5 Q942 0 627 0 L160 0 Z M330 152 L627 152 Q869 152 1010 303.5 Q1151 455 1151 682 Q1151 911 1011.5 1062.5 Q872 1214 627 1214 L330 1214 L330 152 Z " />
<glyph glyph-name="E" unicode="E" horiz-adv-x="1165" d="M160 0 L160 1366 L1055 1366 L1055 1214 L330 1214 L330 774 L1040 774 L1040 623 L330 623 L330 152 L1055 152 L1055 0 L160 0 Z " />
<glyph glyph-name="F" unicode="F" horiz-adv-x="1128" d="M160 0 L160 1366 L1055 1366 L1055 1214 L330 1214 L330 774 L1040 774 L1040 623 L330 623 L330 0 L160 0 Z " />
<glyph glyph-name="G" unicode="G" horiz-adv-x="1460" d="M307 171 Q104 369 104 682 Q104 995 306 1192 Q508 1389 807 1389 Q1133 1389 1337 1135 L1202 1049 Q1136 1135 1031 1186 Q926 1237 807 1237 Q580 1237 430.5 1081.5 Q281 926 281 682 Q281 440 431.5 283.5 Q582 127 807 127 Q920 127 1018 171 Q1116 215 1176 274 L1176 551 L705 551 L705 702 L1343 702 L1343 211 Q1132 -27 807 -27 Q510 -27 307 171 Z " />
<glyph glyph-name="H" unicode="H" horiz-adv-x="1458" d="M160 0 L160 1366 L330 1366 L330 778 L1128 778 L1128 1366 L1298 1366 L1298 0 L1128 0 L1128 627 L330 627 L330 0 L160 0 Z " />
<glyph glyph-name="I" unicode="I" horiz-adv-x="489" d="M160 0 L160 1366 L330 1366 L330 0 L160 0 Z " />
<glyph glyph-name="J" unicode="J" horiz-adv-x="972" d="M23 133 L113 262 Q222 127 369 127 Q494 127 568.5 206 Q643 285 643 414 L643 1366 L813 1366 L813 412 Q813 199 692 87 Q571 -25 379 -25 Q158 -25 23 133 Z " />
<glyph glyph-name="K" unicode="K" horiz-adv-x="1230" d="M160 0 L160 1366 L330 1366 L330 662 L934 1366 L1147 1366 L578 719 L1198 0 L985 0 L467 614 L330 459 L330 0 L160 0 Z " />
<glyph glyph-name="L" unicode="L" horiz-adv-x="1009" d="M137 0 L137 1366 L307 1366 L307 152 L942 152 L942 0 L137 0 Z " />
<glyph glyph-name="M" unicode="M" horiz-adv-x="1656" d="M160 0 L160 1366 L403 1366 L829 313 L1253 1366 L1497 1366 L1497 0 L1327 0 L1327 1149 L864 0 L795 0 L330 1149 L330 0 L160 0 Z " />
<glyph glyph-name="N" unicode="N" horiz-adv-x="1449" d="M160 0 L160 1366 L334 1366 L1120 299 L1120 1366 L1290 1366 L1290 0 L1126 0 L330 1090 L330 0 L160 0 Z " />
<glyph glyph-name="O" unicode="O" horiz-adv-x="1566" d="M293.5 176 Q104 377 104 682 Q104 987 293.5 1188 Q483 1389 782 1389 Q1081 1389 1271.5 1188 Q1462 987 1462 682 Q1462 377 1271.5 176 Q1081 -25 782 -25 Q483 -25 293.5 176 Z M281 682 Q281 440 418 283.5 Q555 127 782 127 Q1007 127 1146.5 283.5 Q1286 440 1286 682 Q1286 924 1147 1080.5 Q1008 1237 782 1237 Q555 1237 418 1081.5 Q281 926 281 682 Z " />
<glyph glyph-name="P" unicode="P" horiz-adv-x="1202" d="M160 0 L160 1366 L709 1366 Q908 1366 1022.5 1247 Q1137 1128 1137 954 Q1137 780 1021 661.5 Q905 543 709 543 L330 543 L330 0 L160 0 Z M330 694 L688 694 Q809 694 885 767 Q961 840 961 954.5 Q961 1069 885 1141.5 Q809 1214 688 1214 L330 1214 L330 694 Z " />
<glyph glyph-name="Q" unicode="Q" horiz-adv-x="1566" d="M293.5 176 Q104 377 104 682 Q104 987 293.5 1188 Q483 1389 782 1389 Q1081 1389 1271.5 1188 Q1462 987 1462 682 Q1462 377 1274 176 L1403 39 L1286 -63 L1153 78 Q993 -24 782 -25 Q483 -25 293.5 176 Z M281 682 Q281 440 418 283.5 Q555 127 782 127 Q927 127 1042 197 L848 408 L967 508 L1159 299 Q1286 455 1286 682 Q1286 924 1147 1080.5 Q1008 1237 782 1237 Q555 1237 418 1081.5 Q281 926 281 682 Z " />
<glyph glyph-name="R" unicode="R" horiz-adv-x="1247" d="M160 0 L160 1366 L709 1366 Q899 1366 1019 1253.5 Q1139 1141 1139 954 Q1139 778 1035.5 673.5 Q932 569 782 557 L1151 0 L950 0 L604 543 L330 543 L330 0 L160 0 Z M330 692 L688 692 Q809 692 886 766 Q963 840 963 954 Q963 1071 886 1142.5 Q809 1214 688 1214 L330 1214 L330 692 Z " />
<glyph glyph-name="S" unicode="S" horiz-adv-x="1200" d="M78 192 L180 324 Q350 127 608 127 Q774 127 852 198.5 Q930 270 930 365 Q930 461 847 518 Q764 575 644 605 Q524 635 405.5 671 Q287 707 204 789.5 Q121 872 121 1008 Q121 1176 254 1282.5 Q387 1389 592 1389 Q893 1389 1075 1196 L973 1071 Q828 1235 578 1235 Q455 1235 376 1174.5 Q297 1114 297 1018 Q297 946 357.5 899 Q418 852 507 829.5 Q596 807 701.5 773 Q807 739 896 701.5 Q985 664 1045.5 580 Q1106 496 1106 377 Q1106 211 982 93 Q858 -25 602 -25 Q271 -25 78 192 Z " />
<glyph glyph-name="T" unicode="T" horiz-adv-x="1167" d="M66 1214 L66 1366 L1102 1366 L1102 1214 L668 1214 L668 0 L498 0 L498 1214 L66 1214 Z " />
<glyph glyph-name="U" unicode="U" horiz-adv-x="1435" d="M160 530 L160 1366 L332 1366 L332 535 Q332 345 431 236 Q530 127 716.5 127 Q903 127 1003.5 235.5 Q1104 344 1104 535 L1104 1366 L1276 1366 L1276 532 Q1276 272 1132.5 123.5 Q989 -25 717 -25 Q447 -25 303.5 123.5 Q160 272 160 530 Z " />
<glyph glyph-name="V" unicode="V" horiz-adv-x="1347" d="M18 1366 L213 1366 L674 186 L1135 1366 L1329 1366 L780 0 L569 0 L18 1366 Z " />
<glyph glyph-name="W" unicode="W" horiz-adv-x="1808" d="M29 1366 L217 1366 L520 227 L834 1366 L975 1366 L1288 227 L1589 1366 L1780 1366 L1389 0 L1204 0 L903 1102 L602 0 L418 0 L29 1366 Z " />
<glyph glyph-name="X" unicode="X" horiz-adv-x="1335" d="M25 0 L557 700 L55 1366 L262 1366 L668 821 L1071 1366 L1280 1366 L778 702 L1311 0 L1104 0 L668 582 L231 0 L25 0 Z " />
<glyph glyph-name="Y" unicode="Y" horiz-adv-x="1282" d="M18 1366 L217 1366 L641 731 L1065 1366 L1264 1366 L727 578 L727 0 L557 0 L557 578 L18 1366 Z " />
<glyph glyph-name="Z" unicode="Z" horiz-adv-x="1198" d="M98 0 L98 141 L866 1214 L98 1214 L98 1366 L1085 1366 L1085 1225 L315 152 L1100 152 L1100 0 L98 0 Z " />
<glyph glyph-name="bracketleft" unicode="&#x5b;" horiz-adv-x="497" d="M82 -389 L82 1389 L463 1389 L463 1276 L203 1276 L203 -276 L463 -276 L463 -389 L82 -389 Z " />
<glyph glyph-name="backslash" unicode="&#x5c;" horiz-adv-x="606" d="M0 1407 L121 1407 L606 -41 L485 -41 L0 1407 Z " />
<glyph glyph-name="bracketright" unicode="&#x5d;" horiz-adv-x="497" d="M35 -276 L297 -276 L297 1276 L35 1276 L35 1389 L418 1389 L418 -389 L35 -389 L35 -276 Z " />
<glyph glyph-name="asciicircum" unicode="&#x5e;" horiz-adv-x="884" d="M39 682 L385 1366 L502 1366 L846 682 L719 682 L442 1253 L166 682 L39 682 Z " />
<glyph glyph-name="underscore" unicode="&#x5f;" horiz-adv-x="1155" d="M-6 -82 L1161 -82 L1161 -195 L-6 -195 L-6 -82 Z " />
<glyph glyph-name="&amp;#x60;" unicode="&#x60;" horiz-adv-x="462" d="M0 1434 L160 1434 L463 1139 L346 1139 L0 1434 Z " />
<glyph glyph-name="&amp;#x2cb;" unicode="&#x2cb;" horiz-adv-x="462" d="M0 1434 L160 1434 L463 1139 L346 1139 L0 1434 Z " />
<glyph glyph-name="a" unicode="a" horiz-adv-x="1081" d="M100 303 Q100 461 202.5 545 Q305 629 444 629 Q653 629 772 496 L772 674 Q772 770 702.5 825.5 Q633 881 522 881 Q344 881 219 743 L147 850 Q305 1014 543 1014 Q713 1014 819.5 932 Q926 850 926 680 L926 0 L772 0 L772 113 Q651 -24 444 -25 Q309 -25 204.5 63 Q100 151 100 303 Z M256 303 Q256 207 324.5 146.5 Q393 86 502 86 Q684 86 772 209 L772 397 Q682 518 502 518 Q393 518 324.5 457.5 Q256 397 256 303 Z " />
<glyph glyph-name="b" unicode="b" horiz-adv-x="1177" d="M154 0 L154 1366 L307 1366 L307 840 Q436 1014 641 1014 Q838 1014 959.5 871.5 Q1081 729 1081 494 Q1081 256 959.5 115.5 Q838 -25 641 -25 Q434 -25 307 147 L307 0 L154 0 Z M307 268 Q348 202 431 157.5 Q514 113 604 113 Q749 113 835.5 219.5 Q922 326 922 494 Q922 662 836 769.5 Q750 877 604 877 Q514 877 431 830.5 Q348 784 307 717 L307 268 Z " />
<glyph glyph-name="c" unicode="c" horiz-adv-x="1015" d="M233.5 123.5 Q96 272 96 495.5 Q96 719 233.5 866.5 Q371 1014 590 1014 Q819 1014 952 842 L850 750 Q758 877 598 877 Q444 877 350 769.5 Q256 662 256 496 Q256 328 350 220.5 Q444 113 598 113 Q754 113 850 242 L952 147 Q819 -25 590 -25 Q371 -25 233.5 123.5 Z " />
<glyph glyph-name="d" unicode="d" horiz-adv-x="1177" d="M96 494 Q96 730 219 872 Q342 1014 537 1014 Q742 1014 870 840 L870 1366 L1024 1366 L1024 0 L870 0 L870 147 Q743 -25 537 -25 Q340 -25 218 115.5 Q96 256 96 494 Z M342 769.5 Q256 662 256 494 Q256 326 342 219.5 Q428 113 575 113 Q663 113 746 159 Q829 205 870 270 L870 717 Q829 785 746.5 831 Q664 877 575 877 Q428 877 342 769.5 Z " />
<glyph glyph-name="e" unicode="e" horiz-adv-x="1153" d="M96 496 Q96 713 235.5 863.5 Q375 1014 584 1014 Q803 1014 931 863.5 Q1059 713 1059 483 L1059 444 L260 444 Q270 299 365.5 200.5 Q461 102 614 102 Q798 102 922 229 L995 129 Q837 -25 602 -25 Q379 -25 237.5 120 Q96 265 96 496 Z M258 559 L907 559 Q905 684 821 785.5 Q737 887 582 887 Q435 887 349.5 786.5 Q264 686 258 559 Z " />
<glyph glyph-name="f" unicode="f" horiz-adv-x="581" d="M33 854 L33 989 L197 989 L197 1065 Q197 1217 274.5 1301.5 Q352 1386 483 1386 Q610 1386 692 1311 L629 1212 Q576 1259 508 1260 Q350 1260 350 1065 L350 989 L551 989 L551 854 L350 854 L350 0 L197 0 L197 854 L33 854 Z " />
<glyph glyph-name="g" unicode="g" horiz-adv-x="1177" d="M218 126 Q96 264 96 499.5 Q96 735 218 874.5 Q340 1014 537 1014 Q742 1014 870 840 L870 989 L1024 989 L1024 14 Q1024 -203 890 -302 Q756 -401 551 -401 Q422 -401 330 -368.5 Q238 -336 152 -252 L229 -141 Q342 -274 551 -274 Q686 -274 778 -203.5 Q870 -133 870 14 L870 164 Q813 84 725 36 Q637 -12 537 -12 Q340 -12 218 126 Z M256 500 Q256 334 342 229.5 Q428 125 575 125 Q663 125 745 171 Q827 217 870 285 L870 719 Q827 785 745.5 831 Q664 877 575 877 Q428 877 342 772.5 Q256 668 256 500 Z " />
<glyph glyph-name="h" unicode="h" horiz-adv-x="1130" d="M156 0 L156 1366 L309 1366 L309 846 Q364 916 460.5 965 Q557 1014 662 1014 Q977 1014 977 698 L977 0 L823 0 L823 651 Q823 776 766 826.5 Q709 877 600 877 Q516 877 435 831.5 Q354 786 309 723 L309 0 L156 0 Z " />
<glyph glyph-name="i" unicode="i" horiz-adv-x="460" d="M157.5 1160 Q127 1190 127 1233 Q127 1276 157.5 1306.5 Q188 1337 231 1337 Q274 1337 304 1306.5 Q334 1276 334 1233 Q334 1190 304 1160 Q274 1130 231 1130 Q188 1130 157.5 1160 Z M154 0 L154 989 L307 989 L307 0 L154 0 Z " />
<glyph glyph-name="j" unicode="j" horiz-adv-x="460" d="M-201 -328 L-147 -213 Q-86 -274 -6 -274 Q68 -274 111 -230 Q154 -186 154 -96 L154 989 L307 989 L307 -96 Q307 -243 231.5 -322 Q156 -401 14 -401 Q-109 -402 -201 -328 Z M157.5 1160 Q127 1190 127 1233 Q127 1276 157.5 1306.5 Q188 1337 231 1337 Q274 1337 304 1306.5 Q334 1276 334 1233 Q334 1190 304 1160 Q274 1130 231 1130 Q188 1130 157.5 1160 Z " />
<glyph glyph-name="k" unicode="k" horiz-adv-x="1052" d="M154 0 L154 1366 L307 1366 L307 463 L827 989 L1022 989 L584 541 L1024 0 L827 0 L473 444 L307 283 L307 0 L154 0 Z " />
<glyph glyph-name="l" unicode="l" horiz-adv-x="460" d="M154 0 L154 1366 L307 1366 L307 0 L154 0 Z " />
<glyph glyph-name="m" unicode="m" horiz-adv-x="1654" d="M154 0 L154 989 L307 989 L307 846 Q346 905 437 959.5 Q528 1014 629 1014 Q735 1014 802.5 962.5 Q870 911 893 829 Q938 903 1030 958.5 Q1122 1014 1225 1014 Q1501 1014 1501 715 L1501 0 L1348 0 L1348 672 Q1348 877 1165 877 Q1091 877 1017.5 832.5 Q944 788 903 725 L903 0 L750 0 L750 672 Q750 877 567 877 Q495 877 422.5 831.5 Q350 786 307 723 L307 0 L154 0 Z " />
<glyph glyph-name="n" unicode="n" horiz-adv-x="1130" d="M154 0 L154 989 L307 989 L307 846 Q364 916 460.5 965 Q557 1014 662 1014 Q975 1014 975 694 L975 0 L823 0 L823 647 Q823 772 766 824.5 Q709 877 600 877 Q514 877 434 831.5 Q354 786 307 723 L307 0 L154 0 Z " />
<glyph glyph-name="o" unicode="o" horiz-adv-x="1171" d="M230.5 124.5 Q96 274 96 495.5 Q96 717 230.5 865.5 Q365 1014 586 1014 Q807 1014 941 865.5 Q1075 717 1075 495.5 Q1075 274 941 124.5 Q807 -25 586 -25 Q365 -25 230.5 124.5 Z M346 766 Q258 655 258 495.5 Q258 336 346 224.5 Q434 113 585.5 113 Q737 113 825 224.5 Q913 336 913 495.5 Q913 655 825 766 Q737 877 585.5 877 Q434 877 346 766 Z " />
<glyph glyph-name="p" unicode="p" horiz-adv-x="1171" d="M154 -377 L154 989 L307 989 L307 842 Q362 920 450.5 967 Q539 1014 641 1014 Q838 1014 959.5 873.5 Q1081 733 1081 495.5 Q1081 258 959.5 116.5 Q838 -25 641 -25 Q438 -25 307 150 L307 -377 L154 -377 Z M307 272 Q348 204 431 158.5 Q514 113 602 113 Q747 113 833.5 220.5 Q920 328 920 496 Q920 664 834 770.5 Q748 877 602 877 Q514 877 431 830.5 Q348 784 307 719 L307 272 Z " />
<glyph glyph-name="q" unicode="q" horiz-adv-x="1171" d="M211.5 116.5 Q90 258 90 495.5 Q90 733 212 873.5 Q334 1014 530 1014 Q632 1014 720.5 967 Q809 920 864 842 L864 989 L1018 989 L1018 -377 L864 -377 L864 150 Q733 -24 530 -25 Q333 -25 211.5 116.5 Z M338 770.5 Q252 664 252 496 Q252 328 338 220.5 Q424 113 569 113 Q657 113 740 159 Q823 205 864 272 L864 719 Q823 785 740 831 Q657 877 569 877 Q424 877 338 770.5 Z " />
<glyph glyph-name="r" unicode="r" horiz-adv-x="675" d="M154 0 L154 989 L307 989 L307 831 Q448 1011 637 1012 L637 854 Q600 858 578 858 Q506 858 424 810 Q342 762 307 700 L307 0 L154 0 Z " />
<glyph glyph-name="s" unicode="s" horiz-adv-x="952" d="M70 131 L147 242 Q198 183 287.5 141.5 Q377 100 473 100 Q584 100 646.5 147.5 Q709 195 709 270 Q709 336 645.5 374 Q582 412 491.5 431.5 Q401 451 312 476.5 Q223 502 159.5 564.5 Q96 627 96 729 Q96 850 194.5 932 Q293 1014 463 1014 Q690 1014 829 870 L758 764 Q654 889 463 889 Q363 889 303.5 845 Q244 801 244 733 Q244 684 289 651 Q334 618 402.5 604 Q471 590 550 567.5 Q629 545 697.5 517 Q766 489 811 427 Q856 365 856 274 Q856 143 754.5 59 Q653 -25 469 -25 Q220 -25 70 131 Z " />
<glyph glyph-name="t" unicode="t" horiz-adv-x="602" d="M20 854 L20 989 L184 989 L184 1260 L340 1260 L340 989 L541 989 L541 854 L340 854 L340 240 Q340 183 365.5 148 Q391 113 438 113 Q504 113 543 156 L588 39 Q520 -24 406 -25 Q185 -25 184 207 L184 854 L20 854 Z " />
<glyph glyph-name="u" unicode="u" horiz-adv-x="1128" d="M154 291 L154 989 L307 989 L307 338 Q307 215 364.5 164 Q422 113 530 113 Q616 113 696 156 Q776 199 821 262 L821 989 L975 989 L975 0 L821 0 L821 139 Q760 69 666.5 22 Q573 -25 469 -25 Q154 -24 154 291 Z " />
<glyph glyph-name="v" unicode="v" horiz-adv-x="1003" d="M6 989 L174 989 L502 178 L831 989 L997 989 L586 0 L418 0 L6 989 Z " />
<glyph glyph-name="w" unicode="w" horiz-adv-x="1503" d="M25 989 L184 989 L426 201 L686 989 L819 989 L1077 201 L1319 989 L1481 989 L1165 0 L1010 0 L752 795 L494 0 L340 0 L25 989 Z " />
<glyph glyph-name="x" unicode="x" horiz-adv-x="997" d="M25 0 L403 508 L45 989 L223 989 L498 612 L774 989 L950 989 L592 508 L973 0 L797 0 L498 406 L201 0 L25 0 Z " />
<glyph glyph-name="y" unicode="y" horiz-adv-x="1003" d="M6 989 L174 989 L502 178 L831 989 L997 989 L502 -201 Q420 -398 211 -401 Q148 -401 100 -387 L123 -248 Q160 -264 207 -264 Q260 -264 295 -241.5 Q330 -219 354 -160 L420 -10 L6 989 Z " />
<glyph glyph-name="z" unicode="z" horiz-adv-x="966" d="M106 0 L106 121 L651 854 L106 854 L106 989 L852 989 L852 872 L303 135 L860 135 L860 0 L106 0 Z " />
<glyph glyph-name="braceleft" unicode="&#x7b;" horiz-adv-x="534" d="M10 449 L10 551 Q63 551 91 591 Q119 631 119 692 L119 1112 Q119 1235 194.5 1312 Q270 1389 373 1389 L500 1389 L500 1276 L373 1276 Q318 1276 278 1230 Q238 1184 238 1114 L238 680 Q238 539 145 500 Q237 461 238 319 L238 -113 Q238 -183 277.5 -229.5 Q317 -276 373 -276 L500 -276 L500 -389 L373 -389 Q271 -389 195 -312.5 Q119 -236 119 -115 L119 307 Q119 368 91 408.5 Q63 449 10 449 Z " />
<glyph glyph-name="bar" unicode="&#x7c;" horiz-adv-x="432" d="M160 -41 L160 1407 L272 1407 L272 -41 L160 -41 Z " />
<glyph glyph-name="braceright" unicode="&#x7d;" horiz-adv-x="534" d="M35 -276 L160 -276 Q215 -276 256 -229 Q297 -182 297 -113 L297 319 Q297 460 389 500 Q297 539 297 680 L297 1114 Q297 1184 257 1230 Q217 1276 160 1276 L35 1276 L35 1389 L160 1389 Q262 1389 339 1312 Q416 1235 416 1112 L416 692 Q416 631 443.5 591 Q471 551 522 551 L522 449 Q471 449 443.5 409 Q416 369 416 307 L416 -115 Q416 -236 339 -312.5 Q262 -389 160 -389 L35 -389 L35 -276 Z " />
<glyph glyph-name="asciitilde" unicode="&#x7e;" horiz-adv-x="1030" d="M55 879 Q65 981 81.5 1060 Q98 1139 129 1212.5 Q160 1286 213 1325 Q266 1364 338 1364 Q410 1364 458 1324 Q506 1284 529.5 1225.5 Q553 1167 572.5 1110 Q592 1053 620.5 1013 Q649 973 692 973 Q821 973 860 1366 L973 1354 Q963 1250 947.5 1172 Q932 1094 901 1019 Q870 944 818 905 Q766 866 692 866 Q620 866 572 906 Q524 946 500.5 1003.5 Q477 1061 457.5 1118.5 Q438 1176 409.5 1215.5 Q381 1255 338 1255 Q209 1255 170 864 L55 879 Z " />
<glyph glyph-name="uni00A0" unicode="&#xa0;" horiz-adv-x="530" d="" />
<glyph glyph-name="exclamdown" unicode="&#xa1;" horiz-adv-x="471" d="M156.5 819 Q123 852 123 897 Q123 942 155.5 976 Q188 1010 236 1010 Q281 1010 313.5 977 Q346 944 346 897 Q346 852 313.5 819 Q281 786 235.5 786 Q190 786 156.5 819 Z M139 -377 L170 606 L299 606 L332 -377 L139 -377 Z " />
<glyph glyph-name="cent" unicode="&#xa2;" horiz-adv-x="1015" d="M96 496 Q96 697 212 839 Q328 981 516 1008 L516 1157 L637 1157 L637 1012 Q830 996 952 842 L850 750 Q768 863 637 874 L637 115 Q766 127 850 242 L952 147 Q833 -7 637 -23 L637 -205 L516 -205 L516 -18 Q328 7 212 150 Q96 293 96 496 Z M325.5 740 Q256 639 256 495.5 Q256 352 325.5 249.5 Q395 147 516 121 L516 868 Q395 841 325.5 740 Z " />
<glyph glyph-name="sterling" unicode="&#xa3;" horiz-adv-x="1060" d="M41 659 L256 659 Q199 725 177.5 752.5 Q156 780 127 846.5 Q98 913 98 983 Q98 1151 233.5 1268.5 Q369 1386 557 1386 Q696 1386 804.5 1326 Q913 1266 971 1157 L834 1075 Q807 1145 735.5 1194 Q664 1243 573 1243 Q452 1243 367.5 1171.5 Q283 1100 283 981 Q283 928 301 877.5 Q319 827 335.5 801.5 Q352 776 393 726 Q434 676 446 659 L754 659 L754 549 L504 549 Q518 502 518 461 Q518 301 362 190 Q417 208 469 209 Q537 209 627 167 Q717 125 772 125 Q835 125 889.5 150.5 Q944 176 967 207 L1040 70 Q940 -26 764 -27 Q668 -27 569.5 20.5 Q471 68 397 68 Q311 68 156 -14 L96 115 Q227 172 297 253 Q367 334 367 426 Q367 487 336 549 L41 549 L41 659 Z " />
<glyph glyph-name="currency" unicode="&#xa4;" horiz-adv-x="1069" d="M74 281 L188 395 Q86 524 86 682 Q86 844 188 969 L74 1085 L131 1143 L248 1028 Q369 1130 535 1130 Q697 1130 821 1028 L936 1143 L995 1085 L881 969 Q983 844 983 682 Q983 524 881 395 L995 281 L936 221 L821 338 Q698 234 534.5 233.5 Q371 233 248 338 L131 221 L74 281 Z M286.5 929.5 Q184 827 184 682 Q184 537 286.5 434.5 Q389 332 534.5 332 Q680 332 782.5 434.5 Q885 537 885 682 Q885 827 782.5 929.5 Q680 1032 534.5 1032 Q389 1032 286.5 929.5 Z " />
<glyph glyph-name="yen" unicode="&#xa5;" horiz-adv-x="1282" d="M18 1366 L217 1366 L641 731 L1065 1366 L1264 1366 L799 684 L1239 684 L1239 578 L727 578 L727 358 L1239 358 L1239 250 L727 250 L727 0 L557 0 L557 250 L45 250 L45 358 L557 358 L557 578 L45 578 L45 684 L483 684 L18 1366 Z " />
<glyph glyph-name="brokenbar" unicode="&#xa6;" horiz-adv-x="432" d="M160 -41 L160 606 L272 606 L272 -41 L160 -41 Z M160 760 L160 1407 L272 1407 L272 760 L160 760 Z " />
<glyph glyph-name="section" unicode="&#xa7;" horiz-adv-x="958" d="M70 -6 L147 94 Q268 -51 469 -51 Q575 -51 642 -4 Q709 43 709 125 Q709 195 645.5 234.5 Q582 274 491.5 295.5 Q401 317 312 344 Q223 371 159.5 433.5 Q96 496 96 596 Q96 696 162.5 762.5 Q229 829 330 856 Q97 930 96 1110 Q96 1227 195.5 1306.5 Q295 1386 463 1386 Q701 1386 829 1241 L758 1149 Q656 1272 469 1272 Q369 1272 306.5 1227 Q244 1182 244 1108 Q244 1055 289 1021 Q334 987 402.5 971.5 Q471 956 550 933.5 Q629 911 697.5 884.5 Q766 858 811 796.5 Q856 735 856 645 Q856 465 668 385 Q856 311 856 135 Q856 -6 749.5 -86 Q643 -166 469 -166 Q234 -166 70 -6 Z M244 610 Q244 557 289 519 Q334 481 374 468 Q414 455 512 430 Q526 426 535 424 Q705 498 705 627 Q705 705 642.5 745.5 Q580 786 473 813 Q346 780 295 731 Q244 682 244 610 Z " />
<glyph glyph-name="dieresis" unicode="&#xa8;" horiz-adv-x="557" d="M0 1170.5 Q-29 1198 -29 1237 Q-29 1276 -1 1303.5 Q27 1331 68 1331 Q107 1331 134.5 1303.5 Q162 1276 162 1237 Q162 1198 134 1170.5 Q106 1143 67.5 1143 Q29 1143 0 1170.5 Z M423 1170.5 Q395 1198 395 1237 Q395 1276 423 1303.5 Q451 1331 489 1331 Q530 1331 558 1303.5 Q586 1276 586 1237 Q586 1198 557 1170.5 Q528 1143 489.5 1143 Q451 1143 423 1170.5 Z " />
<glyph glyph-name="copyright" unicode="&#xa9;" horiz-adv-x="1593" d="M90 684 Q90 977 297 1184 Q504 1391 797 1391 Q1090 1391 1296.5 1184 Q1503 977 1503 684 Q1503 391 1296.5 184 Q1090 -23 797 -23 Q504 -23 297 185 Q90 393 90 684 Z M154 684 Q154 420 343 230.5 Q532 41 797 41 Q1063 41 1251.5 230.5 Q1440 420 1440 684 Q1440 950 1251.5 1138.5 Q1063 1327 797 1327 Q533 1327 343.5 1138.5 Q154 950 154 684 Z M499 375 Q375 502 375 688 Q375 874 499 998 Q623 1122 801 1122 Q987 1122 1100 989 L1049 938 Q1010 991 941 1023 Q872 1055 801 1055 Q658 1055 554.5 951.5 Q451 848 451 686 Q451 528 555 421.5 Q659 315 801 315 Q875 315 941.5 348 Q1008 381 1049 434 L1102 383 Q985 248 801 248 Q623 248 499 375 Z " />
<glyph glyph-name="ordfeminine" unicode="&#xaa;" horiz-adv-x="774" d="M84 864 Q84 964 152.5 1019.5 Q221 1075 313 1075 Q452 1075 535 989 L535 1102 Q535 1163 487.5 1199 Q440 1235 371 1235 Q250 1235 170 1141 L117 1219 Q223 1328 385 1327 Q502 1327 576.5 1272 Q651 1217 651 1100 L651 668 L535 668 L535 739 Q451 651 313 651 Q223 651 153.5 708.5 Q84 766 84 864 Z M203 864 Q203 803 247 766 Q291 729 358 729 Q473 729 535 807 L535 922 Q474 1000 358 999 Q290 999 246.5 961 Q203 923 203 864 Z " />
<glyph glyph-name="guillemotleft" unicode="&#xab;" horiz-adv-x="899" d="M61 498 L389 860 L543 860 L215 498 L543 129 L389 129 L61 498 Z M356 498 L684 860 L838 860 L510 498 L838 129 L684 129 L356 498 Z " />
<glyph glyph-name="logicalnot" unicode="&#xac;" horiz-adv-x="1032" d="M59 827 L59 936 L963 936 L963 432 L850 432 L850 827 L59 827 Z " />
<glyph glyph-name="uni00AD" unicode="&#xad;" horiz-adv-x="614" d="M61 428 L61 563 L553 563 L553 428 L61 428 Z " />
<glyph glyph-name="registered" unicode="&#xae;" horiz-adv-x="1011" d="M199 645 Q72 772 72 952.5 Q72 1133 199 1259.5 Q326 1386 506 1386 Q688 1386 814 1260.5 Q940 1135 940 952 Q940 772 813 645 Q686 518 506 518 Q326 518 199 645 Z M131 952 Q131 798 240.5 688 Q350 578 506 578 Q662 578 771.5 688.5 Q881 799 881 952 Q881 1110 771.5 1218.5 Q662 1327 506 1327 Q350 1327 240.5 1218.5 Q131 1110 131 952 Z M340 702 L340 1200 L543 1200 Q609 1200 654.5 1158 Q700 1116 700 1049 Q700 977 654 939 Q608 901 573 901 L707 702 L625 702 L496 899 L406 899 L406 702 L340 702 Z M406 958 L543 958 Q576 958 604.5 985 Q633 1012 633 1049 Q633 1088 605.5 1115.5 Q578 1143 543 1143 L406 1143 L406 958 Z " />
<glyph glyph-name="&amp;#xaf;" unicode="&#xaf;" horiz-adv-x="743" d="M0 1210 L0 1309 L743 1309 L743 1210 L0 1210 Z " />
<glyph glyph-name="&amp;#x203e;" unicode="&#x203e;" horiz-adv-x="743" d="M0 1210 L0 1309 L743 1309 L743 1210 L0 1210 Z " />
<glyph glyph-name="degree" unicode="&#xb0;" horiz-adv-x="593" d="M47 1137 Q47 1239 120 1312.5 Q193 1386 297 1386 Q399 1386 473 1312.5 Q547 1239 547 1137 Q547 1033 473 960 Q399 887 297 887 Q193 887 120 960 Q47 1033 47 1137 Z M147 1137 Q147 1074 190 1030.5 Q233 987 297 987 Q358 987 403.5 1031 Q449 1075 449 1136.5 Q449 1198 403.5 1243 Q358 1288 297 1288 Q236 1288 191.5 1243 Q147 1198 147 1137 Z " />
<glyph glyph-name="plusminus" unicode="&#xb1;" horiz-adv-x="1021" d="M59 0 L59 109 L963 109 L963 0 L59 0 Z M59 664 L59 770 L453 770 L453 1194 L569 1194 L569 770 L963 770 L963 664 L569 664 L569 227 L453 227 L453 664 L59 664 Z " />
<glyph glyph-name="uni00B2" unicode="&#xb2;" horiz-adv-x="794" d="M100 1565 Q149 1626 230 1660 Q311 1694 401 1694 Q524 1694 609 1632.5 Q694 1571 694 1452 Q694 1339 591.5 1225.5 Q489 1112 283 963 L698 963 L698 862 L102 862 L102 954 Q358 1138 464.5 1244 Q571 1350 571 1444 Q571 1518 520 1555.5 Q469 1593 397.5 1593 Q326 1593 264.5 1562.5 Q203 1532 168 1487 L100 1565 Z " />
<glyph glyph-name="uni00B3" unicode="&#xb3;" horiz-adv-x="794" d="M86 981 L154 1059 Q242 948 391 948 Q479 948 529.5 987 Q580 1026 580 1092 Q580 1233 367 1233 Q297 1233 285 1231 L285 1333 Q299 1331 367 1331 Q568 1331 567 1462 Q567 1523 515 1558 Q463 1593 383 1593 Q252 1593 160 1495 L96 1567 Q209 1694 395 1694 Q526 1694 607 1634.5 Q688 1575 688 1475 Q688 1393 633 1344.5 Q578 1296 506 1286 Q578 1278 640 1226 Q702 1174 702 1085 Q702 979 619.5 913.5 Q537 848 393 848 Q182 848 86 981 Z " />
<glyph glyph-name="acute" unicode="&#xb4;" horiz-adv-x="462" d="M0 1139 L303 1434 L463 1434 L117 1139 L0 1139 Z " />
<glyph glyph-name="&amp;#xb5;" unicode="&#xb5;" horiz-adv-x="1128" d="M154 -377 L154 989 L307 989 L307 338 Q307 213 364.5 161 Q422 109 530 109 Q614 109 695 154 Q776 199 821 262 L821 989 L975 989 L975 0 L821 0 L821 139 Q760 69 666.5 22 Q573 -25 469 -25 Q375 -25 307 4 L307 -377 L154 -377 Z " />
<glyph glyph-name="&amp;#x3bc;" unicode="&#x3bc;" horiz-adv-x="1128" d="M154 -377 L154 989 L307 989 L307 338 Q307 213 364.5 161 Q422 109 530 109 Q614 109 695 154 Q776 199 821 262 L821 989 L975 989 L975 0 L821 0 L821 139 Q760 69 666.5 22 Q573 -25 469 -25 Q375 -25 307 4 L307 -377 L154 -377 Z " />
<glyph glyph-name="paragraph" unicode="&#xb6;" horiz-adv-x="919" d="M159 765 Q55 868 55 1013.5 Q55 1159 158.5 1262.5 Q262 1366 408 1366 L774 1366 L774 -205 L682 -205 L682 1274 L500 1274 L500 -205 L408 -205 L408 662 Q263 662 159 765 Z " />
<glyph glyph-name="&amp;#xb7;" unicode="&#xb7;" horiz-adv-x="473" d="M123 502 Q123 547 156.5 579.5 Q190 612 235.5 612 Q281 612 314.5 579.5 Q348 547 348 502 Q348 455 315.5 422 Q283 389 235.5 389 Q188 389 155.5 422 Q123 455 123 502 Z " />
<glyph glyph-name="&amp;#x2219;" unicode="&#x2219;" horiz-adv-x="473" d="M123 502 Q123 547 156.5 579.5 Q190 612 235.5 612 Q281 612 314.5 579.5 Q348 547 348 502 Q348 455 315.5 422 Q283 389 235.5 389 Q188 389 155.5 422 Q123 455 123 502 Z " />
<glyph glyph-name="cedilla" unicode="&#xb8;" horiz-adv-x="419" d="M0 -330 L39 -252 Q113 -311 203 -311 Q256 -311 292 -288.5 Q328 -266 328 -225 Q328 -153 252 -154 Q203 -154 174 -188 L106 -150 L170 23 L262 23 L209 -113 Q238 -90 285 -90 Q344 -90 382 -128 Q420 -166 420 -227 Q420 -301 359.5 -346 Q299 -391 207 -391 Q78 -391 0 -330 Z " />
<glyph glyph-name="uni00B9" unicode="&#xb9;" horiz-adv-x="481" d="M29 1456 L250 1681 L358 1681 L358 862 L236 862 L236 1522 L100 1380 L29 1456 Z " />
<glyph glyph-name="ordmasculine" unicode="&#xba;" horiz-adv-x="829" d="M82 989 Q82 1132 173 1229.5 Q264 1327 414 1327 Q566 1327 657 1230 Q748 1133 748 989.5 Q748 846 656.5 748.5 Q565 651 414 651 Q267 651 174.5 749.5 Q82 848 82 989 Z M205 989 Q205 885 261 817.5 Q317 750 414 750 Q512 750 569.5 818.5 Q627 887 627 989.5 Q627 1092 569.5 1159.5 Q512 1227 414 1227 Q318 1227 261.5 1159 Q205 1091 205 989 Z " />
<glyph glyph-name="guillemotright" unicode="&#xbb;" horiz-adv-x="899" d="M61 129 L389 498 L61 860 L215 860 L543 498 L215 129 L61 129 Z M356 129 L684 498 L356 860 L510 860 L838 498 L510 129 L356 129 Z " />
<glyph glyph-name="onequarter" unicode="&#xbc;" horiz-adv-x="1576" d="M29 1141 L250 1366 L358 1366 L358 547 L236 547 L236 1206 L100 1065 L29 1141 Z M223 0 L1096 1366 L1208 1366 L334 0 L223 0 Z M860 205 L860 297 L1214 819 L1384 819 L1384 305 L1501 305 L1501 205 L1384 205 L1384 0 L1262 0 L1262 205 L860 205 Z M983 305 L1262 305 L1262 711 L983 305 Z " />
<glyph glyph-name="onehalf" unicode="&#xbd;" horiz-adv-x="1652" d="M29 1141 L250 1366 L358 1366 L358 547 L236 547 L236 1206 L100 1065 L29 1141 Z M223 0 L1096 1366 L1208 1366 L334 0 L223 0 Z M958 702 Q1060 831 1260 831 Q1383 831 1467.5 770 Q1552 709 1552 590 Q1552 477 1450 363.5 Q1348 250 1141 100 L1556 100 L1556 0 L961 0 L961 92 Q1217 276 1323.5 381.5 Q1430 487 1430 582 Q1430 656 1378.5 693.5 Q1327 731 1255.5 731 Q1184 731 1122.5 700.5 Q1061 670 1026 625 L958 702 Z " />
<glyph glyph-name="threequarters" unicode="&#xbe;" horiz-adv-x="1798" d="M86 666 L154 743 Q242 632 391 633 Q479 633 529.5 672 Q580 711 580 776 Q580 917 367 918 Q297 918 285 915 L285 1018 Q299 1016 367 1016 Q568 1016 567 1147 Q567 1208 515 1243 Q463 1278 383 1278 Q252 1278 160 1180 L96 1251 Q209 1378 395 1378 Q526 1378 607 1319 Q688 1260 688 1159 Q688 1077 633 1029 Q578 981 506 971 Q578 963 640 910.5 Q702 858 702 770 Q702 664 619.5 598 Q537 532 393 532 Q182 533 86 666 Z M444 0 L1317 1366 L1430 1366 L555 0 L444 0 Z M1083 205 L1083 297 L1438 819 L1608 819 L1608 305 L1724 305 L1724 205 L1608 205 L1608 0 L1485 0 L1485 205 L1083 205 Z M1206 305 L1485 305 L1485 711 L1206 305 Z " />
<glyph glyph-name="questiondown" unicode="&#xbf;" horiz-adv-x="806" d="M63 -84 Q63 2 104 70.5 Q145 139 204 182 L319 264 Q376 303 417.5 350 Q459 397 459 453 Q459 514 406 551 L530 606 Q608 540 608 438 Q608 366 570 309 Q532 252 478 212 L370 135 Q316 98 278 49 Q240 0 240 -59 Q240 -141 302.5 -195.5 Q365 -250 479 -250 Q682 -250 807 -84 L909 -193 Q749 -402 465 -401 Q283 -401 173 -310 Q63 -219 63 -84 Z M408.5 818 Q375 852 375 897 Q375 942 408.5 976 Q442 1010 487 1010 Q532 1010 566 976 Q600 942 600 897 Q600 852 566 818 Q532 784 487 784 Q442 784 408.5 818 Z " />
<glyph glyph-name="Agrave" unicode="&#xc0;" horiz-adv-x="1347" d="M18 0 L569 1366 L780 1366 L1329 0 L1135 0 L1014 305 L334 305 L213 0 L18 0 Z M348 1786 L508 1786 L811 1491 L694 1491 L348 1786 Z M385 455 L965 455 L674 1192 L385 455 Z " />
<glyph glyph-name="Aacute" unicode="&#xc1;" horiz-adv-x="1347" d="M18 0 L569 1366 L780 1366 L1329 0 L1135 0 L1014 305 L334 305 L213 0 L18 0 Z M385 455 L965 455 L674 1192 L385 455 Z M541 1491 L844 1786 L1004 1786 L657 1491 L541 1491 Z " />
<glyph glyph-name="Acircumflex" unicode="&#xc2;" horiz-adv-x="1347" d="M18 0 L569 1366 L780 1366 L1329 0 L1135 0 L1014 305 L334 305 L213 0 L18 0 Z M385 455 L965 455 L674 1192 L385 455 Z M406 1491 L600 1786 L748 1786 L948 1491 L844 1491 L674 1708 L510 1491 L406 1491 Z " />
<glyph glyph-name="Atilde" unicode="&#xc3;" horiz-adv-x="1347" d="M18 0 L569 1366 L780 1366 L1329 0 L1135 0 L1014 305 L334 305 L213 0 L18 0 Z M354 1499 Q354 1622 406.5 1698 Q459 1774 553 1774 Q602 1774 640 1744 Q678 1714 697.5 1679.5 Q717 1645 744.5 1615 Q772 1585 805 1585 Q848 1585 875.5 1629 Q903 1673 903 1761 L995 1761 Q995 1638 943 1562.5 Q891 1487 797 1487 Q748 1487 710 1516.5 Q672 1546 652.5 1581 Q633 1616 605.5 1645.5 Q578 1675 545 1675 Q502 1675 474 1631 Q446 1587 446 1499 L354 1499 Z M385 455 L965 455 L674 1192 L385 455 Z " />
<glyph glyph-name="Adieresis" unicode="&#xc4;" horiz-adv-x="1347" d="M18 0 L569 1366 L780 1366 L1329 0 L1135 0 L1014 305 L334 305 L213 0 L18 0 Z M397.5 1516.5 Q369 1544 369 1583 Q369 1622 396.5 1649.5 Q424 1677 465 1677 Q504 1677 531.5 1649.5 Q559 1622 559 1583 Q559 1544 531.5 1516.5 Q504 1489 465 1489 Q426 1489 397.5 1516.5 Z M385 455 L965 455 L674 1192 L385 455 Z M820.5 1516.5 Q793 1544 793 1583 Q793 1622 820.5 1649.5 Q848 1677 887 1677 Q928 1677 955.5 1649.5 Q983 1622 983 1583 Q983 1544 954.5 1516.5 Q926 1489 887 1489 Q848 1489 820.5 1516.5 Z " />
<glyph glyph-name="Aring" unicode="&#xc5;" horiz-adv-x="1347" d="M18 0 L569 1366 L780 1366 L1329 0 L1135 0 L1014 305 L334 305 L213 0 L18 0 Z M385 455 L965 455 L674 1192 L385 455 Z M533.5 1476.5 Q473 1536 473 1620 Q473 1704 533.5 1763.5 Q594 1823 676 1823 Q758 1823 816 1763.5 Q874 1704 874 1620 Q874 1536 816 1476.5 Q758 1417 676 1417 Q594 1417 533.5 1476.5 Z M590 1705 Q555 1669 555 1620 Q555 1571 590 1535 Q625 1499 676 1499 Q725 1499 760 1535 Q795 1571 795 1620 Q795 1669 760 1705 Q725 1741 676 1741 Q625 1741 590 1705 Z " />
<glyph glyph-name="AE" unicode="&#xc6;" horiz-adv-x="1941" d="M14 0 L866 1366 L1829 1366 L1829 1214 L1104 1214 L1104 774 L1815 774 L1815 623 L1104 623 L1104 152 L1829 152 L1829 0 L934 0 L934 305 L397 305 L209 0 L14 0 Z M479 455 L934 455 L934 1192 L479 455 Z " />
<glyph glyph-name="Ccedilla" unicode="&#xc7;" horiz-adv-x="1384" d="M104 682 Q104 993 306 1191 Q508 1389 807 1389 Q1137 1389 1325 1118 L1184 1038 Q1125 1128 1023.5 1182.5 Q922 1237 807 1237 Q580 1237 430.5 1081.5 Q281 926 281 682 Q281 440 431.5 283.5 Q582 127 807 127 Q922 127 1023 182.5 Q1124 238 1184 326 L1327 248 Q1132 -16 827 -25 L797 -104 Q826 -81 872 -82 Q931 -82 969.5 -120 Q1008 -158 1008 -219 Q1008 -293 947.5 -338 Q887 -383 795 -383 Q664 -383 588 -322 L627 -244 Q701 -303 791 -303 Q844 -303 879.5 -280.5 Q915 -258 915 -217 Q915 -145 840 -145 Q791 -145 762 -180 L694 -141 L737 -20 Q463 3 283.5 196 Q104 389 104 682 Z " />
<glyph glyph-name="Egrave" unicode="&#xc8;" horiz-adv-x="1165" d="M160 0 L160 1366 L1055 1366 L1055 1214 L330 1214 L330 774 L1040 774 L1040 623 L330 623 L330 152 L1055 152 L1055 0 L160 0 Z M281 1786 L440 1786 L743 1491 L627 1491 L281 1786 Z " />
<glyph glyph-name="Eacute" unicode="&#xc9;" horiz-adv-x="1165" d="M160 0 L160 1366 L1055 1366 L1055 1214 L330 1214 L330 774 L1040 774 L1040 623 L330 623 L330 152 L1055 152 L1055 0 L160 0 Z M471 1491 L774 1786 L934 1786 L588 1491 L471 1491 Z " />
<glyph glyph-name="Ecircumflex" unicode="&#xca;" horiz-adv-x="1165" d="M160 0 L160 1366 L1055 1366 L1055 1214 L330 1214 L330 774 L1040 774 L1040 623 L330 623 L330 152 L1055 152 L1055 0 L160 0 Z M334 1491 L528 1786 L676 1786 L877 1491 L772 1491 L602 1708 L438 1491 L334 1491 Z " />
<glyph glyph-name="Edieresis" unicode="&#xcb;" horiz-adv-x="1165" d="M160 0 L160 1366 L1055 1366 L1055 1214 L330 1214 L330 774 L1040 774 L1040 623 L330 623 L330 152 L1055 152 L1055 0 L160 0 Z M327.5 1516.5 Q299 1544 299 1583 Q299 1622 326.5 1649.5 Q354 1677 395 1677 Q434 1677 461.5 1649.5 Q489 1622 489 1583 Q489 1544 461.5 1516.5 Q434 1489 395 1489 Q356 1489 327.5 1516.5 Z M750.5 1516.5 Q723 1544 723 1583 Q723 1622 750.5 1649.5 Q778 1677 817 1677 Q858 1677 885.5 1649.5 Q913 1622 913 1583 Q913 1544 884.5 1516.5 Q856 1489 817 1489 Q778 1489 750.5 1516.5 Z " />
<glyph glyph-name="Igrave" unicode="&#xcc;" horiz-adv-x="489" d="M-84 1786 L76 1786 L379 1491 L262 1491 L-84 1786 Z M160 0 L160 1366 L330 1366 L330 0 L160 0 Z " />
<glyph glyph-name="Iacute" unicode="&#xcd;" horiz-adv-x="489" d="M113 1491 L416 1786 L575 1786 L229 1491 L113 1491 Z M160 0 L160 1366 L330 1366 L330 0 L160 0 Z " />
<glyph glyph-name="Icircumflex" unicode="&#xce;" horiz-adv-x="489" d="M-27 1491 L168 1786 L315 1786 L516 1491 L412 1491 L242 1708 L78 1491 L-27 1491 Z M160 0 L160 1366 L330 1366 L330 0 L160 0 Z " />
<glyph glyph-name="Idieresis" unicode="&#xcf;" horiz-adv-x="489" d="M-34.5 1516.5 Q-63 1544 -63 1583 Q-63 1622 -35.5 1649.5 Q-8 1677 33 1677 Q72 1677 99.5 1649.5 Q127 1622 127 1583 Q127 1544 99.5 1516.5 Q72 1489 33 1489 Q-6 1489 -34.5 1516.5 Z M160 0 L160 1366 L330 1366 L330 0 L160 0 Z M388 1516.5 Q360 1544 360 1583 Q360 1622 388 1649.5 Q416 1677 455 1677 Q496 1677 523.5 1649.5 Q551 1622 551 1583 Q551 1544 522.5 1516.5 Q494 1489 455 1489 Q416 1489 388 1516.5 Z " />
<glyph glyph-name="Eth" unicode="&#xd0;" horiz-adv-x="1490" d="M20 612 L20 737 L217 737 L217 1366 L684 1366 Q997 1366 1190.5 1171.5 Q1384 977 1384 682 Q1384 385 1191.5 192.5 Q999 0 684 0 L217 0 L217 612 L20 612 Z M387 152 L684 152 Q926 152 1067 303.5 Q1208 455 1208 682 Q1208 911 1069 1062.5 Q930 1214 684 1214 L387 1214 L387 737 L733 737 L733 612 L387 612 L387 152 Z " />
<glyph glyph-name="Ntilde" unicode="&#xd1;" horiz-adv-x="1449" d="M160 0 L160 1366 L334 1366 L1120 299 L1120 1366 L1290 1366 L1290 0 L1126 0 L330 1090 L330 0 L160 0 Z M401 1499 Q401 1622 453.5 1698 Q506 1774 600 1774 Q649 1774 687 1744 Q725 1714 744.5 1679.5 Q764 1645 791.5 1615 Q819 1585 852 1585 Q895 1585 922.5 1629 Q950 1673 950 1761 L1042 1761 Q1042 1638 990 1562.5 Q938 1487 844 1487 Q795 1487 757 1516.5 Q719 1546 699.5 1581 Q680 1616 652.5 1645.5 Q625 1675 592 1675 Q549 1675 521.5 1631 Q494 1587 494 1499 L401 1499 Z " />
<glyph glyph-name="Ograve" unicode="&#xd2;" horiz-adv-x="1566" d="M293.5 176 Q104 377 104 682 Q104 987 293.5 1188 Q483 1389 782 1389 Q1081 1389 1271.5 1188 Q1462 987 1462 682 Q1462 377 1271.5 176 Q1081 -25 782 -25 Q483 -25 293.5 176 Z M281 682 Q281 440 418 283.5 Q555 127 782 127 Q1007 127 1146.5 283.5 Q1286 440 1286 682 Q1286 924 1147 1080.5 Q1008 1237 782 1237 Q555 1237 418 1081.5 Q281 926 281 682 Z M463 1786 L623 1786 L926 1491 L809 1491 L463 1786 Z " />
<glyph glyph-name="Oacute" unicode="&#xd3;" horiz-adv-x="1566" d="M293.5 176 Q104 377 104 682 Q104 987 293.5 1188 Q483 1389 782 1389 Q1081 1389 1271.5 1188 Q1462 987 1462 682 Q1462 377 1271.5 176 Q1081 -25 782 -25 Q483 -25 293.5 176 Z M281 682 Q281 440 418 283.5 Q555 127 782 127 Q1007 127 1146.5 283.5 Q1286 440 1286 682 Q1286 924 1147 1080.5 Q1008 1237 782 1237 Q555 1237 418 1081.5 Q281 926 281 682 Z M651 1491 L954 1786 L1114 1786 L768 1491 L651 1491 Z " />
<glyph glyph-name="Ocircumflex" unicode="&#xd4;" horiz-adv-x="1566" d="M293.5 176 Q104 377 104 682 Q104 987 293.5 1188 Q483 1389 782 1389 Q1081 1389 1271.5 1188 Q1462 987 1462 682 Q1462 377 1271.5 176 Q1081 -25 782 -25 Q483 -25 293.5 176 Z M281 682 Q281 440 418 283.5 Q555 127 782 127 Q1007 127 1146.5 283.5 Q1286 440 1286 682 Q1286 924 1147 1080.5 Q1008 1237 782 1237 Q555 1237 418 1081.5 Q281 926 281 682 Z M516 1491 L711 1786 L858 1786 L1059 1491 L954 1491 L784 1708 L621 1491 L516 1491 Z " />
<glyph glyph-name="Otilde" unicode="&#xd5;" horiz-adv-x="1566" d="M293.5 176 Q104 377 104 682 Q104 987 293.5 1188 Q483 1389 782 1389 Q1081 1389 1271.5 1188 Q1462 987 1462 682 Q1462 377 1271.5 176 Q1081 -25 782 -25 Q483 -25 293.5 176 Z M281 682 Q281 440 418 283.5 Q555 127 782 127 Q1007 127 1146.5 283.5 Q1286 440 1286 682 Q1286 924 1147 1080.5 Q1008 1237 782 1237 Q555 1237 418 1081.5 Q281 926 281 682 Z M463 1499 Q463 1622 515 1698 Q567 1774 662 1774 Q711 1774 748.5 1744 Q786 1714 805.5 1679.5 Q825 1645 853 1615 Q881 1585 913 1585 Q956 1585 984 1629 Q1012 1673 1012 1761 L1104 1761 Q1104 1638 1051.5 1562.5 Q999 1487 905 1487 Q856 1487 818 1516.5 Q780 1546 760.5 1581 Q741 1616 713.5 1645.5 Q686 1675 653 1675 Q610 1675 582.5 1631 Q555 1587 555 1499 L463 1499 Z " />
<glyph glyph-name="Odieresis" unicode="&#xd6;" horiz-adv-x="1566" d="M293.5 176 Q104 377 104 682 Q104 987 293.5 1188 Q483 1389 782 1389 Q1081 1389 1271.5 1188 Q1462 987 1462 682 Q1462 377 1271.5 176 Q1081 -25 782 -25 Q483 -25 293.5 176 Z M281 682 Q281 440 418 283.5 Q555 127 782 127 Q1007 127 1146.5 283.5 Q1286 440 1286 682 Q1286 924 1147 1080.5 Q1008 1237 782 1237 Q555 1237 418 1081.5 Q281 926 281 682 Z M503.5 1516.5 Q475 1544 475 1583 Q475 1622 502.5 1649.5 Q530 1677 571 1677 Q610 1677 638 1649.5 Q666 1622 666 1583 Q666 1544 638 1516.5 Q610 1489 571 1489 Q532 1489 503.5 1516.5 Z M926.5 1516.5 Q899 1544 899 1583 Q899 1622 926.5 1649.5 Q954 1677 993 1677 Q1034 1677 1062 1649.5 Q1090 1622 1090 1583 Q1090 1544 1061 1516.5 Q1032 1489 993 1489 Q954 1489 926.5 1516.5 Z " />
<glyph glyph-name="multiply" unicode="&#xd7;" horiz-adv-x="1021" d="M131 379 L436 684 L131 989 L207 1065 L510 760 L815 1065 L891 989 L588 684 L891 379 L815 303 L510 608 L207 303 L131 379 Z " />
<glyph glyph-name="Oslash" unicode="&#xd8;" horiz-adv-x="1566" d="M104 682 Q104 987 293.5 1188 Q483 1389 782 1389 Q970 1389 1124 1303 L1167 1366 L1305 1366 L1219 1237 Q1334 1141 1398 996.5 Q1462 852 1462 682 Q1462 377 1271.5 176 Q1081 -25 782 -25 Q585 -25 430 68 L385 0 L248 0 L338 133 Q104 334 104 682 Z M281 682 Q281 426 430 270 L1036 1171 Q921 1237 782 1237 Q555 1237 418 1081.5 Q281 926 281 682 Z M518 199 Q631 127 782 127 Q1007 127 1146.5 283.5 Q1286 440 1286 682 Q1286 946 1126 1102 L518 199 Z " />
<glyph glyph-name="Ugrave" unicode="&#xd9;" horiz-adv-x="1435" d="M160 530 L160 1366 L332 1366 L332 535 Q332 345 431 236 Q530 127 716.5 127 Q903 127 1003.5 235.5 Q1104 344 1104 535 L1104 1366 L1276 1366 L1276 532 Q1276 272 1132.5 123.5 Q989 -25 717 -25 Q447 -25 303.5 123.5 Q160 272 160 530 Z M393 1786 L553 1786 L856 1491 L739 1491 L393 1786 Z " />
<glyph glyph-name="Uacute" unicode="&#xda;" horiz-adv-x="1435" d="M160 530 L160 1366 L332 1366 L332 535 Q332 345 431 236 Q530 127 716.5 127 Q903 127 1003.5 235.5 Q1104 344 1104 535 L1104 1366 L1276 1366 L1276 532 Q1276 272 1132.5 123.5 Q989 -25 717 -25 Q447 -25 303.5 123.5 Q160 272 160 530 Z M582 1491 L885 1786 L1044 1786 L698 1491 L582 1491 Z " />
<glyph glyph-name="Ucircumflex" unicode="&#xdb;" horiz-adv-x="1435" d="M160 530 L160 1366 L332 1366 L332 535 Q332 345 431 236 Q530 127 716.5 127 Q903 127 1003.5 235.5 Q1104 344 1104 535 L1104 1366 L1276 1366 L1276 532 Q1276 272 1132.5 123.5 Q989 -25 717 -25 Q447 -25 303.5 123.5 Q160 272 160 530 Z M457 1491 L651 1786 L799 1786 L999 1491 L895 1491 L725 1708 L561 1491 L457 1491 Z " />
<glyph glyph-name="Udieresis" unicode="&#xdc;" horiz-adv-x="1435" d="M160 530 L160 1366 L332 1366 L332 535 Q332 345 431 236 Q530 127 716.5 127 Q903 127 1003.5 235.5 Q1104 344 1104 535 L1104 1366 L1276 1366 L1276 532 Q1276 272 1132.5 123.5 Q989 -25 717 -25 Q447 -25 303.5 123.5 Q160 272 160 530 Z M440.5 1516.5 Q412 1544 412 1583 Q412 1622 439.5 1649.5 Q467 1677 508 1677 Q547 1677 574.5 1649.5 Q602 1622 602 1583 Q602 1544 574.5 1516.5 Q547 1489 508 1489 Q469 1489 440.5 1516.5 Z M863.5 1516.5 Q836 1544 836 1583 Q836 1622 863.5 1649.5 Q891 1677 930 1677 Q971 1677 998.5 1649.5 Q1026 1622 1026 1583 Q1026 1544 997.5 1516.5 Q969 1489 930 1489 Q891 1489 863.5 1516.5 Z " />
<glyph glyph-name="Yacute" unicode="&#xdd;" horiz-adv-x="1282" d="M18 1366 L217 1366 L641 731 L1065 1366 L1264 1366 L727 578 L727 0 L557 0 L557 578 L18 1366 Z M514 1491 L817 1786 L977 1786 L631 1491 L514 1491 Z " />
<glyph glyph-name="Thorn" unicode="&#xde;" horiz-adv-x="1202" d="M160 0 L160 1366 L330 1366 L330 1122 L709 1122 Q908 1122 1022.5 1003.5 Q1137 885 1137 709 Q1137 535 1021 417 Q905 299 709 299 L330 299 L330 0 L160 0 Z M330 451 L688 451 Q809 451 885 522.5 Q961 594 961 708.5 Q961 823 885 897 Q809 971 688 971 L330 971 L330 451 Z " />
<glyph glyph-name="germandbls" unicode="&#xdf;" horiz-adv-x="1222" d="M156 0 L156 1022 Q156 1178 262.5 1282 Q369 1386 545 1386 Q692 1386 797.5 1315.5 Q903 1245 903 1128 Q903 1067 871.5 1019 Q840 971 795 940 L705 881 Q660 852 628 814 Q596 776 596 731 Q596 674 656.5 641 Q717 608 803 588.5 Q889 569 976 542.5 Q1063 516 1123.5 449.5 Q1184 383 1184 276 Q1184 149 1084.5 62 Q985 -25 803 -25 Q668 -25 584 16 Q500 57 422 135 L500 242 Q545 181 625 141.5 Q705 102 803 102 Q916 102 975 151.5 Q1034 201 1034 272 Q1034 338 973.5 376 Q913 414 827 434.5 Q741 455 654 481.5 Q567 508 506.5 569.5 Q446 631 446 731 Q446 805 493.5 864.5 Q541 924 596 954.5 Q651 985 698 1027 Q745 1069 745 1112 Q745 1175 684 1212 Q623 1249 543 1249 Q443 1249 376 1186.5 Q309 1124 309 1022 L309 0 L156 0 Z " />
<glyph glyph-name="agrave" unicode="&#xe0;" horiz-adv-x="1081" d="M100 303 Q100 461 202.5 545 Q305 629 444 629 Q653 629 772 496 L772 674 Q772 770 702.5 825.5 Q633 881 522 881 Q344 881 219 743 L147 850 Q305 1014 543 1014 Q713 1014 819.5 932 Q926 850 926 680 L926 0 L772 0 L772 113 Q651 -24 444 -25 Q309 -25 204.5 63 Q100 151 100 303 Z M217 1434 L377 1434 L680 1139 L563 1139 L217 1434 Z M256 303 Q256 207 324.5 146.5 Q393 86 502 86 Q684 86 772 209 L772 397 Q682 518 502 518 Q393 518 324.5 457.5 Q256 397 256 303 Z " />
<glyph glyph-name="aacute" unicode="&#xe1;" horiz-adv-x="1081" d="M100 303 Q100 461 202.5 545 Q305 629 444 629 Q653 629 772 496 L772 674 Q772 770 702.5 825.5 Q633 881 522 881 Q344 881 219 743 L147 850 Q305 1014 543 1014 Q713 1014 819.5 932 Q926 850 926 680 L926 0 L772 0 L772 113 Q651 -24 444 -25 Q309 -25 204.5 63 Q100 151 100 303 Z M256 303 Q256 207 324.5 146.5 Q393 86 502 86 Q684 86 772 209 L772 397 Q682 518 502 518 Q393 518 324.5 457.5 Q256 397 256 303 Z M412 1139 L715 1434 L874 1434 L528 1139 L412 1139 Z " />
<glyph glyph-name="acircumflex" unicode="&#xe2;" horiz-adv-x="1081" d="M100 303 Q100 461 202.5 545 Q305 629 444 629 Q653 629 772 496 L772 674 Q772 770 702.5 825.5 Q633 881 522 881 Q344 881 219 743 L147 850 Q305 1014 543 1014 Q713 1014 819.5 932 Q926 850 926 680 L926 0 L772 0 L772 113 Q651 -24 444 -25 Q309 -25 204.5 63 Q100 151 100 303 Z M256 303 Q256 207 324.5 146.5 Q393 86 502 86 Q684 86 772 209 L772 397 Q682 518 502 518 Q393 518 324.5 457.5 Q256 397 256 303 Z M279 1139 L473 1434 L621 1434 L821 1139 L717 1139 L547 1356 L383 1139 L279 1139 Z " />
<glyph glyph-name="atilde" unicode="&#xe3;" horiz-adv-x="1081" d="M100 303 Q100 461 202.5 545 Q305 629 444 629 Q653 629 772 496 L772 674 Q772 770 702.5 825.5 Q633 881 522 881 Q344 881 219 743 L147 850 Q305 1014 543 1014 Q713 1014 819.5 932 Q926 850 926 680 L926 0 L772 0 L772 113 Q651 -24 444 -25 Q309 -25 204.5 63 Q100 151 100 303 Z M223 1147 Q223 1270 275.5 1345.5 Q328 1421 422 1421 Q471 1421 509 1391.5 Q547 1362 566.5 1327 Q586 1292 613.5 1262.5 Q641 1233 674 1233 Q717 1233 744.5 1277 Q772 1321 772 1409 L864 1409 Q864 1286 812 1210.5 Q760 1135 666 1135 Q617 1135 579 1164.5 Q541 1194 521.5 1229 Q502 1264 474 1293.5 Q446 1323 414 1323 Q371 1323 343 1279 Q315 1235 315 1147 L223 1147 Z M256 303 Q256 207 324.5 146.5 Q393 86 502 86 Q684 86 772 209 L772 397 Q682 518 502 518 Q393 518 324.5 457.5 Q256 397 256 303 Z " />
<glyph glyph-name="adieresis" unicode="&#xe4;" horiz-adv-x="1081" d="M100 303 Q100 461 202.5 545 Q305 629 444 629 Q653 629 772 496 L772 674 Q772 770 702.5 825.5 Q633 881 522 881 Q344 881 219 743 L147 850 Q305 1014 543 1014 Q713 1014 819.5 932 Q926 850 926 680 L926 0 L772 0 L772 113 Q651 -24 444 -25 Q309 -25 204.5 63 Q100 151 100 303 Z M262 1170.5 Q233 1198 233 1237 Q233 1276 261 1303.5 Q289 1331 330 1331 Q369 1331 396.5 1303.5 Q424 1276 424 1237 Q424 1198 396.5 1170.5 Q369 1143 330 1143 Q291 1143 262 1170.5 Z M256 303 Q256 207 324.5 146.5 Q393 86 502 86 Q684 86 772 209 L772 397 Q682 518 502 518 Q393 518 324.5 457.5 Q256 397 256 303 Z M685 1170.5 Q657 1198 657 1237 Q657 1276 685 1303.5 Q713 1331 752 1331 Q793 1331 820.5 1303.5 Q848 1276 848 1237 Q848 1198 819.5 1170.5 Q791 1143 752 1143 Q713 1143 685 1170.5 Z " />
<glyph glyph-name="aring" unicode="&#xe5;" horiz-adv-x="1081" d="M100 303 Q100 461 202.5 545 Q305 629 444 629 Q653 629 772 496 L772 674 Q772 770 702.5 825.5 Q633 881 522 881 Q344 881 219 743 L147 850 Q305 1014 543 1014 Q713 1014 819.5 932 Q926 850 926 680 L926 0 L772 0 L772 113 Q651 -24 444 -25 Q309 -25 204.5 63 Q100 151 100 303 Z M256 303 Q256 207 324.5 146.5 Q393 86 502 86 Q684 86 772 209 L772 397 Q682 518 502 518 Q393 518 324.5 457.5 Q256 397 256 303 Z M402.5 1180.5 Q342 1241 342 1323 Q342 1405 402.5 1465.5 Q463 1526 545 1526 Q627 1526 685 1466.5 Q743 1407 743 1323 Q743 1239 685 1179.5 Q627 1120 545 1120 Q463 1120 402.5 1180.5 Z M459 1408 Q424 1372 424 1323 Q424 1274 459 1238 Q494 1202 545 1202 Q594 1202 629 1238 Q664 1274 664 1323 Q664 1372 629 1408 Q594 1444 545 1444 Q494 1444 459 1408 Z " />
<glyph glyph-name="ae" unicode="&#xe6;" horiz-adv-x="1820" d="M100 303 Q100 457 200.5 543 Q301 629 444 629 Q653 629 772 498 L772 674 Q772 770 702.5 825.5 Q633 881 522 881 Q344 881 219 743 L147 850 Q305 1014 543 1014 Q830 1014 879 797 Q1002 1014 1257 1014 Q1472 1014 1599 863.5 Q1726 713 1726 483 L1726 444 L928 444 Q938 299 1033 202.5 Q1128 106 1282 106 Q1468 106 1589 231 L1663 129 Q1505 -25 1270 -25 Q1008 -25 860 180 Q715 -25 453 -25 Q312 -25 206 63 Q100 151 100 303 Z M256 303 Q256 207 324.5 146.5 Q393 86 502 86 Q707 86 803 260 Q772 332 772 393 Q682 518 502 518 Q393 518 324.5 457.5 Q256 397 256 303 Z M926 559 L1575 559 Q1573 684 1489 785.5 Q1405 887 1249 887 Q1102 887 1017 786.5 Q932 686 926 559 Z " />
<glyph glyph-name="ccedilla" unicode="&#xe7;" horiz-adv-x="1015" d="M96 496 Q96 719 233.5 866.5 Q371 1014 590 1014 Q819 1014 952 842 L850 750 Q758 877 598 877 Q444 877 350 769.5 Q256 662 256 496 Q256 328 350 220.5 Q444 113 598 113 Q754 113 850 242 L952 147 Q833 -9 629 -23 L596 -109 Q625 -86 672 -86 Q731 -86 769 -124 Q807 -162 807 -223 Q807 -297 746.5 -342 Q686 -387 594 -387 Q463 -387 387 -326 L426 -248 Q500 -307 590 -307 Q643 -307 679 -284.5 Q715 -262 715 -221 Q715 -150 639 -150 Q590 -150 561 -184 L494 -145 L539 -20 Q340 -4 218 141.5 Q96 287 96 496 Z " />
<glyph glyph-name="egrave" unicode="&#xe8;" horiz-adv-x="1153" d="M96 496 Q96 713 235.5 863.5 Q375 1014 584 1014 Q803 1014 931 863.5 Q1059 713 1059 483 L1059 444 L260 444 Q270 299 365.5 200.5 Q461 102 614 102 Q798 102 922 229 L995 129 Q837 -25 602 -25 Q379 -25 237.5 120 Q96 265 96 496 Z M258 559 L907 559 Q905 684 821 785.5 Q737 887 582 887 Q435 887 349.5 786.5 Q264 686 258 559 Z M258 1434 L418 1434 L721 1139 L604 1139 L258 1434 Z " />
<glyph glyph-name="eacute" unicode="&#xe9;" horiz-adv-x="1153" d="M96 496 Q96 713 235.5 863.5 Q375 1014 584 1014 Q803 1014 931 863.5 Q1059 713 1059 483 L1059 444 L260 444 Q270 299 365.5 200.5 Q461 102 614 102 Q798 102 922 229 L995 129 Q837 -25 602 -25 Q379 -25 237.5 120 Q96 265 96 496 Z M258 559 L907 559 Q905 684 821 785.5 Q737 887 582 887 Q435 887 349.5 786.5 Q264 686 258 559 Z M451 1139 L754 1434 L913 1434 L567 1139 L451 1139 Z " />
<glyph glyph-name="ecircumflex" unicode="&#xea;" horiz-adv-x="1153" d="M96 496 Q96 713 235.5 863.5 Q375 1014 584 1014 Q803 1014 931 863.5 Q1059 713 1059 483 L1059 444 L260 444 Q270 299 365.5 200.5 Q461 102 614 102 Q798 102 922 229 L995 129 Q837 -25 602 -25 Q379 -25 237.5 120 Q96 265 96 496 Z M258 559 L907 559 Q905 684 821 785.5 Q737 887 582 887 Q435 887 349.5 786.5 Q264 686 258 559 Z M315 1139 L510 1434 L657 1434 L858 1139 L754 1139 L584 1356 L420 1139 L315 1139 Z " />
<glyph glyph-name="edieresis" unicode="&#xeb;" horiz-adv-x="1153" d="M96 496 Q96 713 235.5 863.5 Q375 1014 584 1014 Q803 1014 931 863.5 Q1059 713 1059 483 L1059 444 L260 444 Q270 299 365.5 200.5 Q461 102 614 102 Q798 102 922 229 L995 129 Q837 -25 602 -25 Q379 -25 237.5 120 Q96 265 96 496 Z M258 559 L907 559 Q905 684 821 785.5 Q737 887 582 887 Q435 887 349.5 786.5 Q264 686 258 559 Z M307.5 1170.5 Q279 1198 279 1237 Q279 1276 306.5 1303.5 Q334 1331 375 1331 Q414 1331 441.5 1303.5 Q469 1276 469 1237 Q469 1198 441.5 1170.5 Q414 1143 375 1143 Q336 1143 307.5 1170.5 Z M730 1170.5 Q702 1198 702 1237 Q702 1276 730 1303.5 Q758 1331 797 1331 Q838 1331 865.5 1303.5 Q893 1276 893 1237 Q893 1198 864.5 1170.5 Q836 1143 797 1143 Q758 1143 730 1170.5 Z " />
<glyph glyph-name="igrave" unicode="&#xec;" horiz-adv-x="460" d="M-98 1434 L61 1434 L365 1139 L248 1139 L-98 1434 Z M154 0 L154 989 L307 989 L307 0 L154 0 Z " />
<glyph glyph-name="iacute" unicode="&#xed;" horiz-adv-x="460" d="M96 1139 L399 1434 L559 1434 L213 1139 L96 1139 Z M154 0 L154 989 L307 989 L307 0 L154 0 Z " />
<glyph glyph-name="icircumflex" unicode="&#xee;" horiz-adv-x="460" d="M-39 1139 L156 1434 L303 1434 L504 1139 L399 1139 L229 1356 L66 1139 L-39 1139 Z M154 0 L154 989 L307 989 L307 0 L154 0 Z " />
<glyph glyph-name="idieresis" unicode="&#xef;" horiz-adv-x="460" d="M-47 1170.5 Q-76 1198 -76 1237 Q-76 1276 -48 1303.5 Q-20 1331 20 1331 Q59 1331 87 1303.5 Q115 1276 115 1237 Q115 1198 87 1170.5 Q59 1143 20.5 1143 Q-18 1143 -47 1170.5 Z M154 0 L154 989 L307 989 L307 0 L154 0 Z M375.5 1170.5 Q348 1198 348 1237 Q348 1276 375.5 1303.5 Q403 1331 442 1331 Q483 1331 511 1303.5 Q539 1276 539 1237 Q539 1198 510 1170.5 Q481 1143 442 1143 Q403 1143 375.5 1170.5 Z " />
<glyph glyph-name="eth" unicode="&#xf0;" horiz-adv-x="1171" d="M231.5 118.5 Q96 262 96 479 Q96 696 223 838.5 Q350 981 547 981 Q748 981 870 801 Q768 985 543 1149 L250 1018 L213 1104 L455 1210 L301 1309 L385 1436 Q522 1352 614 1280 L836 1378 L870 1294 L694 1217 Q1075 893 1075 506 Q1075 273 942 124 Q809 -25 586 -25 Q367 -25 231.5 118.5 Z M258 479 Q258 325 346 219 Q434 113 585.5 113 Q737 113 825 219.5 Q913 326 913 479 Q913 631 825 737.5 Q737 844 585.5 844 Q434 844 346 737.5 Q258 631 258 479 Z " />
<glyph glyph-name="ntilde" unicode="&#xf1;" horiz-adv-x="1130" d="M160 0 L160 989 L313 989 L313 846 Q370 916 466.5 965 Q563 1014 668 1014 Q981 1014 981 694 L981 0 L829 0 L829 647 Q829 772 772 824.5 Q715 877 606 877 Q520 877 440 831.5 Q360 786 313 723 L313 0 L160 0 Z M246 1147 Q246 1270 298 1345.5 Q350 1421 444 1421 Q493 1421 531 1391.5 Q569 1362 588.5 1327 Q608 1292 636 1262.5 Q664 1233 696 1233 Q739 1233 767 1277 Q795 1321 795 1409 L887 1409 Q887 1286 834.5 1210.5 Q782 1135 688 1135 Q639 1135 601 1164.5 Q563 1194 543.5 1229 Q524 1264 496.5 1293.5 Q469 1323 436 1323 Q393 1323 365.5 1279 Q338 1235 338 1147 L246 1147 Z " />
<glyph glyph-name="ograve" unicode="&#xf2;" horiz-adv-x="1171" d="M230.5 124.5 Q96 274 96 495.5 Q96 717 230.5 865.5 Q365 1014 586 1014 Q807 1014 941 865.5 Q1075 717 1075 495.5 Q1075 274 941 124.5 Q807 -25 586 -25 Q365 -25 230.5 124.5 Z M346 766 Q258 655 258 495.5 Q258 336 346 224.5 Q434 113 585.5 113 Q737 113 825 224.5 Q913 336 913 495.5 Q913 655 825 766 Q737 877 585.5 877 Q434 877 346 766 Z M258 1434 L418 1434 L721 1139 L604 1139 L258 1434 Z " />
<glyph glyph-name="oacute" unicode="&#xf3;" horiz-adv-x="1171" d="M230.5 124.5 Q96 274 96 495.5 Q96 717 230.5 865.5 Q365 1014 586 1014 Q807 1014 941 865.5 Q1075 717 1075 495.5 Q1075 274 941 124.5 Q807 -25 586 -25 Q365 -25 230.5 124.5 Z M346 766 Q258 655 258 495.5 Q258 336 346 224.5 Q434 113 585.5 113 Q737 113 825 224.5 Q913 336 913 495.5 Q913 655 825 766 Q737 877 585.5 877 Q434 877 346 766 Z M451 1139 L754 1434 L913 1434 L567 1139 L451 1139 Z " />
<glyph glyph-name="ocircumflex" unicode="&#xf4;" horiz-adv-x="1171" d="M230.5 124.5 Q96 274 96 495.5 Q96 717 230.5 865.5 Q365 1014 586 1014 Q807 1014 941 865.5 Q1075 717 1075 495.5 Q1075 274 941 124.5 Q807 -25 586 -25 Q365 -25 230.5 124.5 Z M346 766 Q258 655 258 495.5 Q258 336 346 224.5 Q434 113 585.5 113 Q737 113 825 224.5 Q913 336 913 495.5 Q913 655 825 766 Q737 877 585.5 877 Q434 877 346 766 Z M317 1139 L512 1434 L659 1434 L860 1139 L756 1139 L586 1356 L422 1139 L317 1139 Z " />
<glyph glyph-name="otilde" unicode="&#xf5;" horiz-adv-x="1171" d="M230.5 124.5 Q96 274 96 495.5 Q96 717 230.5 865.5 Q365 1014 586 1014 Q807 1014 941 865.5 Q1075 717 1075 495.5 Q1075 274 941 124.5 Q807 -25 586 -25 Q365 -25 230.5 124.5 Z M346 766 Q258 655 258 495.5 Q258 336 346 224.5 Q434 113 585.5 113 Q737 113 825 224.5 Q913 336 913 495.5 Q913 655 825 766 Q737 877 585.5 877 Q434 877 346 766 Z M266 1147 Q266 1270 318.5 1345.5 Q371 1421 465 1421 Q514 1421 552 1391.5 Q590 1362 609.5 1327 Q629 1292 656.5 1262.5 Q684 1233 717 1233 Q760 1233 787.5 1277 Q815 1321 815 1409 L907 1409 Q907 1286 855 1210.5 Q803 1135 709 1135 Q660 1135 622 1164.5 Q584 1194 564.5 1229 Q545 1264 517 1293.5 Q489 1323 457 1323 Q414 1323 386 1279 Q358 1235 358 1147 L266 1147 Z " />
<glyph glyph-name="odieresis" unicode="&#xf6;" horiz-adv-x="1171" d="M230.5 124.5 Q96 274 96 495.5 Q96 717 230.5 865.5 Q365 1014 586 1014 Q807 1014 941 865.5 Q1075 717 1075 495.5 Q1075 274 941 124.5 Q807 -25 586 -25 Q365 -25 230.5 124.5 Z M346 766 Q258 655 258 495.5 Q258 336 346 224.5 Q434 113 585.5 113 Q737 113 825 224.5 Q913 336 913 495.5 Q913 655 825 766 Q737 877 585.5 877 Q434 877 346 766 Z M307.5 1170.5 Q279 1198 279 1237 Q279 1276 306.5 1303.5 Q334 1331 375 1331 Q414 1331 441.5 1303.5 Q469 1276 469 1237 Q469 1198 441.5 1170.5 Q414 1143 375 1143 Q336 1143 307.5 1170.5 Z M730 1170.5 Q702 1198 702 1237 Q702 1276 730 1303.5 Q758 1331 797 1331 Q838 1331 865.5 1303.5 Q893 1276 893 1237 Q893 1198 864.5 1170.5 Q836 1143 797 1143 Q758 1143 730 1170.5 Z " />
<glyph glyph-name="divide" unicode="&#xf7;" horiz-adv-x="1046" d="M59 637 L59 743 L987 743 L987 637 L59 637 Z M457.5 228.5 Q430 256 430 295 Q430 334 457.5 361.5 Q485 389 524 389 Q563 389 590.5 361.5 Q618 334 618 295 Q618 256 590.5 228.5 Q563 201 524 201 Q485 201 457.5 228.5 Z M457.5 1011.5 Q430 1040 430 1079 Q430 1118 457.5 1144.5 Q485 1171 524 1171 Q563 1171 590.5 1144.5 Q618 1118 618 1079 Q618 1040 590.5 1011.5 Q563 983 524 983 Q485 983 457.5 1011.5 Z " />
<glyph glyph-name="oslash" unicode="&#xf8;" horiz-adv-x="1171" d="M96 496 Q96 717 230.5 865.5 Q365 1014 586 1014 Q748 1014 866 930 L913 989 L1026 989 L934 872 Q1075 725 1075 496 Q1075 275 941 125 Q807 -25 586 -25 Q416 -25 295 68 L242 0 L131 0 L229 125 Q96 271 96 496 Z M258 496 Q258 349 328 248 L774 815 Q696 876 586 877 Q434 877 346 766.5 Q258 656 258 496 Z M385 182 Q467 112 586 113 Q738 113 825.5 224.5 Q913 336 913 496 Q913 648 836 750 L385 182 Z " />
<glyph glyph-name="ugrave" unicode="&#xf9;" horiz-adv-x="1128" d="M154 291 L154 989 L307 989 L307 338 Q307 215 364.5 164 Q422 113 530 113 Q616 113 696 156 Q776 199 821 262 L821 989 L975 989 L975 0 L821 0 L821 139 Q760 69 666.5 22 Q573 -25 469 -25 Q154 -24 154 291 Z M242 1434 L401 1434 L705 1139 L588 1139 L242 1434 Z " />
<glyph glyph-name="uacute" unicode="&#xfa;" horiz-adv-x="1128" d="M154 291 L154 989 L307 989 L307 338 Q307 215 364.5 164 Q422 113 530 113 Q616 113 696 156 Q776 199 821 262 L821 989 L975 989 L975 0 L821 0 L821 139 Q760 69 666.5 22 Q573 -25 469 -25 Q154 -24 154 291 Z M432 1139 L735 1434 L895 1434 L549 1139 L432 1139 Z " />
<glyph glyph-name="ucircumflex" unicode="&#xfb;" horiz-adv-x="1128" d="M154 291 L154 989 L307 989 L307 338 Q307 215 364.5 164 Q422 113 530 113 Q616 113 696 156 Q776 199 821 262 L821 989 L975 989 L975 0 L821 0 L821 139 Q760 69 666.5 22 Q573 -25 469 -25 Q154 -24 154 291 Z M295 1139 L489 1434 L637 1434 L838 1139 L733 1139 L563 1356 L399 1139 L295 1139 Z " />
<glyph glyph-name="udieresis" unicode="&#xfc;" horiz-adv-x="1128" d="M154 291 L154 989 L307 989 L307 338 Q307 215 364.5 164 Q422 113 530 113 Q616 113 696 156 Q776 199 821 262 L821 989 L975 989 L975 0 L821 0 L821 139 Q760 69 666.5 22 Q573 -25 469 -25 Q154 -24 154 291 Z M293 1170.5 Q264 1198 264 1237 Q264 1276 291.5 1303.5 Q319 1331 360 1331 Q399 1331 427 1303.5 Q455 1276 455 1237 Q455 1198 427 1170.5 Q399 1143 360.5 1143 Q322 1143 293 1170.5 Z M715.5 1170.5 Q688 1198 688 1237 Q688 1276 715.5 1303.5 Q743 1331 782 1331 Q823 1331 851 1303.5 Q879 1276 879 1237 Q879 1198 850 1170.5 Q821 1143 782 1143 Q743 1143 715.5 1170.5 Z " />
<glyph glyph-name="yacute" unicode="&#xfd;" horiz-adv-x="1003" d="M6 989 L174 989 L502 178 L831 989 L997 989 L502 -201 Q420 -398 211 -401 Q148 -401 100 -387 L123 -248 Q160 -264 207 -264 Q260 -264 295 -241.5 Q330 -219 354 -160 L420 -10 L6 989 Z M369 1139 L672 1434 L831 1434 L485 1139 L369 1139 Z " />
<glyph glyph-name="thorn" unicode="&#xfe;" horiz-adv-x="1171" d="M154 -377 L154 1366 L307 1366 L307 842 Q362 920 450.5 967 Q539 1014 641 1014 Q838 1014 959.5 873.5 Q1081 733 1081 495.5 Q1081 258 959.5 116.5 Q838 -25 641 -25 Q438 -25 307 150 L307 -377 L154 -377 Z M307 272 Q348 204 431 158.5 Q514 113 602 113 Q747 113 833.5 220.5 Q920 328 920 496 Q920 664 834 770.5 Q748 877 602 877 Q514 877 431 830.5 Q348 784 307 719 L307 272 Z " />
<glyph glyph-name="ydieresis" unicode="&#xff;" horiz-adv-x="1003" d="M6 989 L174 989 L502 178 L831 989 L997 989 L502 -201 Q420 -398 211 -401 Q148 -401 100 -387 L123 -248 Q160 -264 207 -264 Q260 -264 295 -241.5 Q330 -219 354 -160 L420 -10 L6 989 Z M223.5 1170.5 Q195 1198 195 1237 Q195 1276 222.5 1303.5 Q250 1331 291 1331 Q330 1331 357.5 1303.5 Q385 1276 385 1237 Q385 1198 357.5 1170.5 Q330 1143 291 1143 Q252 1143 223.5 1170.5 Z M646 1170.5 Q618 1198 618 1237 Q618 1276 646 1303.5 Q674 1331 713 1331 Q754 1331 781.5 1303.5 Q809 1276 809 1237 Q809 1198 780.5 1170.5 Q752 1143 713 1143 Q674 1143 646 1170.5 Z " />
<glyph glyph-name="OE" unicode="&#x152;" horiz-adv-x="2263" d="M288.5 176 Q104 377 104 682 Q104 987 288.5 1186.5 Q473 1386 768 1386 Q918 1386 1051 1316.5 Q1184 1247 1257 1118 L1257 1366 L2152 1366 L2152 1214 L1427 1214 L1427 774 L2138 774 L2138 623 L1427 623 L1427 152 L2152 152 L2152 0 L1257 0 L1257 248 Q1183 117 1050.5 46 Q918 -25 768 -25 Q473 -25 288.5 176 Z M281 682 Q281 440 419 283.5 Q557 127 788 127 Q948 127 1073 212 Q1198 297 1257 459 L1257 907 Q1198 1067 1074 1151 Q950 1235 788 1235 Q557 1235 419 1080.5 Q281 926 281 682 Z " />
<glyph glyph-name="oe" unicode="&#x153;" horiz-adv-x="1970" d="M230.5 124.5 Q96 274 96 495.5 Q96 717 230.5 865.5 Q365 1014 586 1014 Q672 1014 745.5 985 Q819 956 867 910 Q915 864 945 821 Q975 778 995 731 Q1040 837 1141.5 925.5 Q1243 1014 1401 1014 Q1620 1014 1748 863.5 Q1876 713 1876 483 L1876 444 L1077 444 Q1087 299 1182.5 200.5 Q1278 102 1432 102 Q1616 102 1739 229 L1812 129 Q1654 -25 1419 -25 Q1249 -25 1146.5 60 Q1044 145 993 258 Q866 -25 586 -25 Q365 -25 230.5 124.5 Z M258 496 Q258 332 347 221.5 Q436 111 585.5 111 Q735 111 824 221.5 Q913 332 913 496 Q913 658 824 767.5 Q735 877 585.5 877 Q436 877 347 767.5 Q258 658 258 496 Z M1075 559 L1726 559 Q1722 684 1638 785.5 Q1554 887 1401 887 Q1254 887 1167.5 786.5 Q1081 686 1075 559 Z " />
<glyph glyph-name="Ydieresis" unicode="&#x178;" horiz-adv-x="1282" d="M18 1366 L217 1366 L641 731 L1065 1366 L1264 1366 L727 578 L727 0 L557 0 L557 578 L18 1366 Z M368.5 1516.5 Q340 1544 340 1583 Q340 1622 367.5 1649.5 Q395 1677 436 1677 Q475 1677 502.5 1649.5 Q530 1622 530 1583 Q530 1544 502.5 1516.5 Q475 1489 436 1489 Q397 1489 368.5 1516.5 Z M791.5 1516.5 Q764 1544 764 1583 Q764 1622 791.5 1649.5 Q819 1677 858 1677 Q899 1677 926.5 1649.5 Q954 1622 954 1583 Q954 1544 925.5 1516.5 Q897 1489 858 1489 Q819 1489 791.5 1516.5 Z " />
<glyph glyph-name="circumflex" unicode="&#x2c6;" horiz-adv-x="542" d="M0 1139 L195 1434 L342 1434 L543 1139 L438 1139 L268 1356 L104 1139 L0 1139 Z " />
<glyph glyph-name="tilde" unicode="&#x2dc;" horiz-adv-x="641" d="M0 1147 Q0 1270 52 1345.5 Q104 1421 199 1421 Q248 1421 286 1391.5 Q324 1362 343 1327 Q362 1292 390 1262.5 Q418 1233 451 1233 Q494 1233 521.5 1277 Q549 1321 549 1409 L641 1409 Q641 1286 589 1210.5 Q537 1135 442 1135 Q393 1135 355 1164.5 Q317 1194 298 1229 Q279 1264 251 1293.5 Q223 1323 190 1323 Q147 1323 119.5 1279 Q92 1235 92 1147 L0 1147 Z " />
<glyph glyph-name="endash" unicode="&#x2013;" horiz-adv-x="1214" d="M61 428 L61 563 L1153 563 L1153 428 L61 428 Z " />
<glyph glyph-name="emdash" unicode="&#x2014;" horiz-adv-x="1705" d="M61 428 L61 563 L1645 563 L1645 428 L61 428 Z " />
<glyph glyph-name="quoteleft" unicode="&#x2018;" horiz-adv-x="471" d="M98 1079 Q98 1169 144 1252 Q190 1335 262 1386 L340 1325 Q291 1292 252 1238 Q213 1184 207 1135 Q209 1135 219 1137 Q229 1139 236 1139 Q277 1139 305.5 1109 Q334 1079 334 1034 Q334 987 302 955.5 Q270 924 225 924 Q172 924 135 965.5 Q98 1007 98 1079 Z " />
<glyph glyph-name="quoteright" unicode="&#x2019;" horiz-adv-x="471" d="M117 985 Q166 1018 205 1072 Q244 1126 250 1176 Q242 1172 221 1171 Q180 1171 151.5 1201 Q123 1231 123 1276 Q123 1321 154.5 1353.5 Q186 1386 231 1386 Q286 1386 323 1344.5 Q360 1303 360 1231 Q360 1141 314 1058 Q268 975 195 922 L117 985 Z " />
<glyph glyph-name="quotesinglbase" unicode="&#x201a;" horiz-adv-x="471" d="M117 -197 Q168 -164 206 -109.5 Q244 -55 250 -6 Q242 -10 221 -10 Q180 -10 151.5 19.5 Q123 49 123 94 Q123 139 154.5 172 Q186 205 231 205 Q286 205 323 163 Q360 121 360 49 Q360 -41 314 -124 Q268 -207 195 -260 L117 -197 Z " />
<glyph glyph-name="quotedblleft" unicode="&#x201c;" horiz-adv-x="798" d="M111 1079 Q111 1169 157 1252 Q203 1335 276 1386 L352 1325 Q303 1292 265 1238 Q227 1184 221 1135 L231 1137 Q241 1139 248 1139 Q291 1139 319.5 1109 Q348 1079 348 1034 Q348 987 315.5 955.5 Q283 924 238 924 Q185 924 148 965.5 Q111 1007 111 1079 Z M438 1079 Q438 1169 484 1252 Q530 1334 604 1386 L680 1325 Q631 1292 593 1238 Q555 1184 549 1135 Q551 1135 561 1137 Q571 1139 575 1139 Q618 1139 647 1109 Q676 1079 676 1034 Q676 987 643 955.5 Q610 924 565 924 Q512 924 475 965.5 Q438 1007 438 1079 Z " />
<glyph glyph-name="quotedblright" unicode="&#x201d;" horiz-adv-x="798" d="M117 985 Q166 1018 205 1072 Q244 1126 250 1176 Q242 1172 221 1171 Q180 1171 151.5 1201 Q123 1231 123 1276 Q123 1321 154.5 1353.5 Q186 1386 231 1386 Q286 1386 323 1344.5 Q360 1303 360 1231 Q360 1141 314 1058 Q268 975 195 922 L117 985 Z M446 985 Q495 1018 533 1072 Q571 1126 578 1176 Q574 1172 551 1171 Q508 1171 479.5 1201 Q451 1231 451 1276 Q451 1321 483.5 1353.5 Q516 1386 561 1386 Q614 1386 651 1344.5 Q688 1303 688 1231 Q688 1141 642 1058 Q596 975 522 922 L446 985 Z " />
<glyph glyph-name="quotedblbase" unicode="&#x201e;" horiz-adv-x="798" d="M117 -197 Q168 -164 206 -109.5 Q244 -55 250 -6 Q242 -10 221 -10 Q180 -10 151.5 19.5 Q123 49 123 94 Q123 139 154.5 172 Q186 205 231 205 Q286 205 323 163 Q360 121 360 49 Q360 -41 314 -124 Q268 -207 195 -260 L117 -197 Z M446 -197 Q495 -164 533 -109.5 Q571 -55 578 -6 Q574 -10 551 -10 Q508 -10 479.5 19.5 Q451 49 451 94 Q451 139 483.5 172 Q516 205 561 205 Q614 205 651 163 Q688 121 688 49 Q688 -41 642 -124 Q596 -207 522 -260 L446 -197 Z " />
<glyph glyph-name="bullet" unicode="&#x2022;" horiz-adv-x="733" d="M213 341 Q147 406 147 496 Q147 586 213 651.5 Q279 717 369 717 Q459 717 524.5 651.5 Q590 586 590 496 Q590 406 524.5 341 Q459 276 369 276 Q279 276 213 341 Z " />
<glyph glyph-name="ellipsis" unicode="&#x2026;" horiz-adv-x="1415" d="M123 92 Q123 139 155.5 172 Q188 205 235.5 205 Q283 205 315.5 172 Q348 139 348 92 Q348 47 314.5 13.5 Q281 -20 235.5 -20 Q190 -20 156.5 13.5 Q123 47 123 92 Z M594 92 Q594 139 626.5 172 Q659 205 706.5 205 Q754 205 786.5 172 Q819 139 819 92 Q819 47 785.5 13.5 Q752 -20 707 -20 Q662 -20 628 13.5 Q594 47 594 92 Z M1067 92 Q1067 139 1101 172 Q1135 205 1180 205 Q1225 205 1257.5 172 Q1290 139 1290 92 Q1290 47 1257.5 13.5 Q1225 -20 1180 -20 Q1135 -20 1101 13.5 Q1067 47 1067 92 Z " />
<glyph glyph-name="guilsinglleft" unicode="&#x2039;" horiz-adv-x="604" d="M61 498 L389 860 L543 860 L215 498 L543 129 L389 129 L61 498 Z " />
<glyph glyph-name="guilsinglright" unicode="&#x203a;" horiz-adv-x="604" d="M61 129 L389 498 L61 860 L215 860 L543 498 L215 129 L61 129 Z " />
<glyph glyph-name="Euro" unicode="&#x20ac;" horiz-adv-x="1423" d="M63 485 L63 592 L154 592 Q150 649 150 682 Q150 715 154 776 L63 776 L63 885 L176 885 Q237 1114 421.5 1251.5 Q606 1389 852 1389 Q1182 1389 1370 1118 L1229 1038 Q1170 1128 1068.5 1182.5 Q967 1237 852 1237 Q678 1237 545 1142 Q412 1047 356 885 L975 885 L975 776 L332 776 Q326 729 326 682 Q326 635 332 592 L975 592 L975 485 L356 485 Q409 321 543.5 224 Q678 127 852 127 Q967 127 1068 182.5 Q1169 238 1229 326 L1372 248 Q1173 -24 852 -25 Q604 -25 418.5 113.5 Q233 252 174 485 L63 485 Z " />
<glyph glyph-name="trademark" unicode="&#x2122;" horiz-adv-x="929" d="M35 1313 L35 1366 L346 1366 L346 1313 L219 1313 L219 915 L162 915 L162 1313 L35 1313 Z M420 915 L420 1366 L508 1366 L639 1038 L770 1366 L858 1366 L858 915 L801 915 L801 1288 L647 915 L631 915 L477 1288 L477 915 L420 915 Z " />
<glyph glyph-name="uniE000" unicode="&#xe000;" horiz-adv-x="990" d="M0 990 L990 990 L990 0 L0 0 L0 990 Z " />
<glyph glyph-name="uniFB01" unicode="&#xfb01;" horiz-adv-x="1042" d="M33 854 L33 989 L197 989 L197 1065 Q197 1217 275.5 1301.5 Q354 1386 483 1386 Q575 1386 635 1354 L596 1237 Q557 1260 508 1260 Q350 1260 350 1065 L350 989 L551 989 L551 854 L350 854 L350 0 L197 0 L197 854 L33 854 Z M739.5 1160 Q709 1190 709 1233 Q709 1276 739.5 1306.5 Q770 1337 813 1337 Q856 1337 885.5 1306.5 Q915 1276 915 1233 Q915 1190 885.5 1160 Q856 1130 813 1130 Q770 1130 739.5 1160 Z M735 0 L735 989 L889 989 L889 0 L735 0 Z " />
<glyph glyph-name="uniFB02" unicode="&#xfb02;" horiz-adv-x="1042" d="M33 854 L33 989 L197 989 L197 1065 Q197 1217 275.5 1301.5 Q354 1386 483 1386 Q575 1386 635 1354 L596 1237 Q557 1260 508 1260 Q350 1260 350 1065 L350 989 L551 989 L551 854 L350 854 L350 0 L197 0 L197 854 L33 854 Z M735 0 L735 1366 L889 1366 L889 0 L735 0 Z " />
<glyph glyph-name="uniFB03" unicode="&#xfb03;" horiz-adv-x="1622" d="M33 854 L33 989 L197 989 L197 1065 Q197 1217 274.5 1301.5 Q352 1386 483 1386 Q610 1386 692 1311 L629 1212 Q576 1259 508 1260 Q350 1260 350 1065 L350 989 L551 989 L551 854 L350 854 L350 0 L197 0 L197 854 L33 854 Z M614 854 L614 989 L778 989 L778 1065 Q778 1217 857 1301.5 Q936 1386 1065 1386 Q1157 1386 1217 1354 L1178 1237 Q1139 1260 1090 1260 Q932 1260 932 1065 L932 989 L1133 989 L1133 854 L932 854 L932 0 L778 0 L778 854 L614 854 Z M1319 1160 Q1288 1190 1288 1233 Q1288 1276 1319 1306.5 Q1350 1337 1393 1337 Q1436 1337 1465.5 1306.5 Q1495 1276 1495 1233 Q1495 1190 1465.5 1160 Q1436 1130 1393 1130 Q1350 1130 1319 1160 Z M1315 0 L1315 989 L1468 989 L1468 0 L1315 0 Z " />
<glyph glyph-name="uniFB04" unicode="&#xfb04;" horiz-adv-x="1622" d="M33 854 L33 989 L197 989 L197 1065 Q197 1217 274.5 1301.5 Q352 1386 483 1386 Q610 1386 692 1311 L629 1212 Q576 1259 508 1260 Q350 1260 350 1065 L350 989 L551 989 L551 854 L350 854 L350 0 L197 0 L197 854 L33 854 Z M614 854 L614 989 L778 989 L778 1065 Q778 1217 857 1301.5 Q936 1386 1065 1386 Q1157 1386 1217 1354 L1178 1237 Q1139 1260 1090 1260 Q932 1260 932 1065 L932 989 L1133 989 L1133 854 L932 854 L932 0 L778 0 L778 854 L614 854 Z M1315 0 L1315 1366 L1468 1366 L1468 0 L1315 0 Z " />
</font>
</svg>
